<?xml version="1.0" encoding="UTF-8"?>
<svg version="1.1" viewBox="0 0 2048 402" width="3360" height="660" xmlns="http://www.w3.org/2000/svg">
<path transform="translate(1685,19)" d="m0 0h329l10 5 6 7 3 9v323l-3 9-5 6-9 5-4 1h-325l-9-3-8-7-4-9v-327l3-8 8-8z" fill="#FFB000"/>
<path transform="translate(1269,18)" d="m0 0h331l8 4 7 8 3 9v322l-3 9-7 8-8 4-6 1h-319l-10-2-8-6-5-8-1-3v-328l5-10 8-6z" fill="#FFB000"/>
<path transform="translate(857,18)" d="m0 0h331l10 5 6 8 2 5v328l-5 10-7 6-5 2-7 1h-319l-9-2-6-4-6-7-3-9v-322l4-11 9-8z" fill="#FFB000"/>
<path transform="translate(34,18)" d="m0 0h331l8 4 7 8 3 8v324l-4 10-7 7-7 3-6 1h-319l-9-2-8-5-6-9-1-3v-328l5-10 8-6z" fill="#FFB000"/>
<path transform="translate(450,18)" d="m0 0h330l10 5 6 7 2 5v330l-4 8-8 7-5 2-6 1h-319l-10-2-8-6-5-7-1-3v-330l4-8 7-6z" fill="#FFB000"/>
<path transform="translate(1029,79)" d="m0 0 9 2 5 6 23 54 5 12v2l38 3 33 3 8 2 5 5 2 4-1 9-5 6-11 9-13 12-11 9-13 12-5 4 2 12 14 62-2 8-5 5-2 1h-9l-23-13-28-17-13-8-4 1-29 17-25 15-9 5h-9l-6-4-3-6 1-10 15-66-2-4-11-9-13-12-11-9-14-13-6-5-2-5 1-9 4-5 4-2 28-3 44-4h5l1-5 24-56 5-10 5-4z" fill="#FEFEFE"/>
<path transform="translate(196,79)" d="m0 0h7l6 4 3 4 23 54 6 13 64 6 13 2 6 5 2 5-1 8-7 8-14 12-11 10-11 9-13 12-2 1 1 9 14 61v10l-4 6-6 3-9-1-32-19-30-18-5 1-29 17-25 15-9 5h-7l-7-4-3-6v-7l16-70-4-5-11-9-14-13-11-9-13-12-5-5-1-3v-7l4-7 7-3 74-7 23-54 6-14 5-5z" fill="#FEFEFE"/>
<path transform="translate(1850,80)" d="m0 0h7l6 4 4 6 23 54 5 11 51 5 22 2 7 3 4 5 1 7-3 7-7 7-11 9-13 12-11 9-13 12h-2l16 70v11l-5 6-4 2h-7l-10-5-28-17-27-16-5 1-54 32-9 5h-7l-6-3-4-8 1-9 15-66-2-4-11-10-11-9-13-12-11-9-8-7-3-6v-7l4-6 4-3 14-2 55-5 8-1 24-56 6-13 5-5z" fill="#FEFEFE"/>
<path transform="translate(609,79)" d="m0 0 9 2 5 6 23 53 6 14 15 2 55 5 8 2 5 4 2 4v8l-4 6-12 11-11 9-13 12-11 9-8 7 4 19 12 53-1 9-4 5-4 2h-9l-16-9-28-17-20-12-6 2-20 12-32 19-8 5h-10l-5-3-3-5v-10l15-66-1-5-11-10-8-7-14-12-11-10-11-9-3-7 1-7 3-5 5-3 17-2 56-5h4l3-9 24-56 5-8z" fill="#FEFEFE"/>
<path transform="translate(1434,79)" d="m0 0h8l5 3 4 5 15 35 13 31 1 1 74 7 6 3 4 5v10l-4 6-10 9-11 9-13 12-8 7-12 10 1 9 14 61v10l-4 6-6 3-9-1-28-17-29-17-7-4-29 17-35 21-8 1-6-3-4-5-1-2v-7l16-70-6-7-11-9-13-12-11-9-16-15-2-4v-8l4-6 6-3 75-7 14-33 15-35 4-5z" fill="#FEFEFE"/>
</svg>
