<?xml version="1.0" encoding="UTF-8"?>
<svg version="1.1" viewBox="0 0 2048 402" width="3360" height="660" xmlns="http://www.w3.org/2000/svg">
<path transform="translate(1685,19)" d="m0 0h329l10 5 6 7 3 9v323l-3 9-5 6-9 5-4 1h-325l-9-3-8-7-4-9v-327l3-8 8-8z" fill="#D7D7D7"/>
<path transform="translate(1269,18)" d="m0 0h331l8 4 7 8 3 9v322l-3 9-7 8-8 4-6 1h-319l-10-2-8-6-5-8-1-3v-328l5-10 8-6z" fill="#FDB000"/>
<path transform="translate(857,18)" d="m0 0h331l10 5 6 8 2 5v328l-5 10-7 6-5 2-7 1h-319l-9-2-6-4-6-7-3-9v-322l4-11 9-8z" fill="#FDB000"/>
<path transform="translate(34,18)" d="m0 0h331l8 4 7 8 3 8v324l-4 10-7 7-7 3-6 1h-319l-9-2-8-5-6-9-1-3v-328l5-10 8-6z" fill="#FDB000"/>
<path transform="translate(450,18)" d="m0 0h330l10 5 6 7 2 5v330l-4 8-8 7-5 2-6 1h-319l-10-2-8-6-5-7-1-3v-330l4-8 7-6z" fill="#FDB000"/>
<path transform="translate(1685,19)" d="m0 0h165v62l-6 4-6 12-23 54-2 5-28 3-44 4-8 2-4 5-1 8 3 6 13 12 8 7 14 12 11 10 10 8-1 8-14 62v11l4 5 5 2 8-1 29-17 28-17 4-1v99h-163l-9-3-8-7-4-9v-327l3-8 8-8z" fill="#FDB000"/>
<path transform="translate(1850,80)" d="m0 0h8l6 4 5 10 23 54 3 7 75 7 6 4 3 3 1 3v7l-4 7-14 12-11 10-11 9-13 12-6 5 8 37 8 35-1 8-4 6-4 2h-9l-16-9-28-17-20-12-5 1-16 9-28 17-17 10-8 1-6-3-4-5v-11l16-70-4-2-12-11-11-9-14-13-11-9-7-8-1-8 3-6 5-4 28-3 44-4h6l1-5 24-56 5-10 5-4z" fill="#fff"/>
<path transform="translate(197,79)" d="m0 0 8 1 5 4 13 29 13 31 4 9v2l17 1 55 5 9 3 4 6 1 5-3 8-11 10-11 9-14 13-11 9-9 8 1 10 14 62v8l-4 6-7 3-7-1-16-9-28-17-20-12-5 2-20 12-32 19-8 5-8 1-6-3-4-5-1-7 16-71-2-4-13-12-11-9-13-12-11-9-7-7-2-5 1-8 5-6 7-2 66-6 6-1 23-53 7-16 6-5z" fill="#fff"/>
<path transform="translate(1435,79)" d="m0 0 9 1 5 4 10 22 17 40 3 9 19 1 55 5 7 3 4 6v9l-3 5-11 9-14 13-11 9-13 12-6 5 1 10 14 61v8l-3 6-5 3h-10l-29-17-28-17-7-4-5 2-54 32-7 4h-10l-6-5-2-5 1-9 15-66v-3l-11-9-13-12-11-9-14-13-8-7-2-5v-6l4-6 4-3 15-2 55-5 7-1 22-51 7-17 5-5z" fill="#fff"/>
<path transform="translate(606,80)" d="m0 0h9l6 4 6 12 13 31 11 26v2l68 6 11 2 5 5 2 4-1 9-4 5-11 9-13 12-8 7-14 12-8 7 2 12 14 62-2 8-5 5-3 1h-7l-11-6-54-32-5 1-28 17-27 16-7 4h-8l-5-3-3-3-1-3v-8l15-66 1-6-4-2-11-10-8-7-14-12-11-10-8-7-3-4-1-7 3-6 4-4 12-2 66-6 7-15 11-26 12-28z" fill="#fff"/>
<path transform="translate(1026,80)" d="m0 0h9l6 4 9 20 18 42 4 9 67 6 11 2 6 7v10l-7 8-12 11-11 9-12 11-16 14 1 8 14 62v10l-6 7-3 1h-7l-10-5-55-33-5 1-28 17-29 17-6 3h-7l-5-3-4-5v-11l15-65-1-5-11-10-8-7-14-12-11-10-8-7-5-6-1-7 4-8 6-3 75-7 23-53 8-18z" fill="#fff"/>
</svg>
