<?xml version="1.0" encoding="UTF-8"?>
<svg version="1.1" viewBox="0 0 2048 402" width="3360" height="660" xmlns="http://www.w3.org/2000/svg">
<path transform="translate(1685,19)" d="m0 0h329l10 5 6 7 3 9v323l-3 9-5 6-9 5-4 1h-325l-9-3-8-7-4-9v-327l3-8 8-8z" fill="#D7D7D7"/>
<path transform="translate(1269,18)" d="m0 0h331l8 4 7 8 3 9v322l-3 9-7 8-8 4-6 1h-319l-10-2-8-6-5-8-1-3v-328l5-10 8-6z" fill="#D7D7D7"/>
<path transform="translate(857,18)" d="m0 0h331l10 5 6 8 2 5v328l-5 10-7 6-5 2-7 1h-319l-9-2-6-4-6-7-3-9v-322l4-11 9-8z" fill="#FEB000"/>
<path transform="translate(34,18)" d="m0 0h331l8 4 7 8 3 8v324l-4 10-7 7-7 3-6 1h-319l-9-2-8-5-6-9-1-3v-328l5-10 8-6z" fill="#FEB000"/>
<path transform="translate(450,18)" d="m0 0h330l10 5 6 7 2 5v330l-4 8-8 7-5 2-6 1h-319l-10-2-8-6-5-7-1-3v-330l4-8 7-6z" fill="#FEB000"/>
<path transform="translate(1849,80)" d="m0 0h8l6 4 5 8 19 45 8 18 74 7 6 3 4 5 1 8-3 6-8 8-11 9-13 12-11 9-13 12 5 25 11 49-2 8-6 5-2 1h-8l-19-11-28-17-17-10-5 1-32 19-20 12-11 6h-8l-6-4-3-6v-7l16-70-4-5-11-9-13-12-11-9-14-13-5-5-1-2v-8l3-5 5-4 13-2 64-6 18-42 11-26 4-5z" fill="#FDFDFD"/>
<path transform="translate(1434,79)" d="m0 0h9l7 6 14 32 15 35 1 2 75 7 6 4 3 4v11l-7 8-11 9-13 12-11 9-14 13-2 1 1 8 14 62v10l-4 6-6 3-9-1-32-19-28-17-6-1-35 21-27 16-2 1h-7l-7-4-3-6v-7l15-66v-6l-12-11-11-9-13-12-11-9-8-7-3-5v-9l4-6 6-3 74-7 6-12 23-54 4-6z" fill="#FDFDFD"/>
<path transform="translate(197,79)" d="m0 0 8 1 5 4 13 29 13 31 4 9v2l17 1 55 5 9 3 4 6 1 5-3 8-11 10-11 9-13 12-11 9-10 9 1 10 14 62v7l-3 6-8 4-7-1-16-9-28-17-20-12-5 2-20 12-32 19-8 5-8 1-6-3-4-5-1-7 16-71 1-3-4-2-12-11-11-9-13-12-11-9-7-7-2-5 1-8 5-6 7-2 66-6 6-1 23-53 7-16 6-5z" fill="#FDFDFD"/>
<path transform="translate(606,80)" d="m0 0h9l6 4 6 12 13 31 11 26v2l68 6 11 2 5 5 2 4-1 9-4 5-11 9-13 12-8 7-14 12-8 7 2 12 14 62-2 8-5 5-3 1h-7l-11-6-54-32-5 1-28 17-22 13-12 7h-8l-5-3-3-3-1-3v-8l15-66 1-6-4-2-11-10-8-7-14-12-11-10-8-7-3-4-1-7 3-6 4-4 12-2 66-6 7-15 11-26 12-28z" fill="#FDFDFD"/>
<path transform="translate(1026,80)" d="m0 0h9l6 4 9 20 18 42 4 9 67 6 11 2 6 7v10l-7 8-12 11-11 9-12 11-16 14 1 8 14 62v10l-6 7-3 1h-7l-10-5-55-33-5 1-28 17-29 17-6 3h-7l-5-3-4-5v-11l15-65-1-5-11-10-8-7-14-12-12-11-8-7-4-5-1-7 4-8 6-3 75-7 23-53 8-18z" fill="#FDFDFD"/>
</svg>
