<?xml version="1.0" encoding="UTF-8"?>
<svg version="1.1" viewBox="0 0 2048 402" width="3360" height="660" xmlns="http://www.w3.org/2000/svg">
<path transform="translate(1685,19)" d="m0 0h329l10 5 6 7 3 9v323l-3 9-5 6-9 5-4 1h-325l-9-3-8-7-4-9v-327l3-8 8-8z" fill="#D6D6D6"/>
<path transform="translate(1269,18)" d="m0 0h331l8 4 7 8 3 9v322l-3 9-7 8-8 4-6 1h-319l-10-2-8-6-5-8-1-3v-328l5-10 8-6z" fill="#D6D6D6"/>
<path transform="translate(857,18)" d="m0 0h331l10 5 6 8 2 5v328l-5 10-7 6-5 2-7 1h-319l-9-2-6-4-6-7-3-9v-322l4-11 9-8z" fill="#D6D6D6"/>
<path transform="translate(34,18)" d="m0 0h331l8 4 7 8 3 8v324l-4 10-7 7-7 3-6 1h-319l-9-2-8-5-6-9-1-3v-328l5-10 8-6z" fill="#FFB000"/>
<path transform="translate(450,18)" d="m0 0h330l10 5 6 7 2 5v330l-4 8-8 7-5 2-6 1h-319l-10-2-8-6-5-7-1-3v-330l4-8 7-6z" fill="#FFB000"/>
<path transform="translate(857,18)" d="m0 0h166v64l-4 5-24 56-5 12-16 2-55 5-8 2-5 5-1 9 3 6 10 9 8 7 14 12 11 10 11 9 2 4-16 71 1 8 5 5 2 1h9l16-9 40-24h2v96h-160l-9-2-6-4-6-7-3-9v-322l4-11 9-8z" fill="#FFB000"/>
<path transform="translate(1849,80)" d="m0 0h8l5 3 4 5 23 53 6 14 74 7 6 3 4 5 1 8-3 6-8 8-8 7-14 12-10 9-11 9-5 5 4 20 12 53-2 9-5 5-3 1h-8l-16-9-28-17-20-12-5 1-28 17-29 17-6 3h-8l-6-4-3-6v-7l16-70-4-5-11-9-13-12-11-9-13-12-5-4-2-4v-8l3-6 8-4 74-7 23-54 7-16 5-4z" fill="#FEFEFE"/>
<path transform="translate(1434,79)" d="m0 0h9l7 6 12 27 13 31 5 11 75 7 6 4 3 4 1 7-3 7-13 12-11 9-14 13-11 9-7 6 1 8 14 62v10l-4 6-6 3-9-1-32-19-28-17-6-1-45 27-19 11h-7l-7-4-3-6v-7l15-66v-6l-11-10-8-7-14-12-11-10-11-9-3-5v-9l4-6 6-3 63-6 11-1 6-12 14-33 11-25 5-4z" fill="#FEFEFE"/>
<path transform="translate(1028,79)" d="m0 0 8 1 6 5 11 25 18 42 1 2 16 2 55 5 9 3 4 5 1 9-3 6-12 11-11 9-14 13-11 9-8 7 4 20 11 49 1 9-5 8-4 2h-10l-32-19-25-15-8-4-21 12-20 12-22 13-2 1h-9l-6-4-3-6 1-10 15-66-2-4-11-9-13-12-11-9-14-13-6-5-2-5 1-9 4-5 4-2 28-3 44-4h5l1-5 24-56 5-10 5-4z" fill="#FDFDFD"/>
<path transform="translate(195,79)" d="m0 0h8l6 4 3 4 23 54 6 13 74 7 6 3 4 5 1 8-3 6-14 13-11 9-13 12-11 9-7 6 1 9 14 61v10l-4 6-5 3h-7l-10-5-28-17-27-16-5 1-29 17-15 9-19 11h-7l-7-4-3-6v-7l16-70-4-5-11-9-14-13-11-9-13-12-5-5-1-2v-8l4-7 7-3 74-7 23-54 7-16 5-4z" fill="#FDFDFD"/>
<path transform="translate(609,79)" d="m0 0 9 2 5 6 23 53 6 14 15 2 55 5 8 2 5 4 2 4v8l-4 6-12 11-11 9-13 12-11 9-8 7 4 19 12 53-1 9-4 5-4 2h-9l-16-9-28-17-20-12-6 2-25 15-32 19-3 2h-10l-5-3-3-5v-10l15-66-1-5-11-10-11-9-13-12-11-9-9-8-3-7 1-7 4-6 4-2 28-3 44-4h5l3-9 15-35 11-25 5-5z" fill="#FDFDFD"/>
</svg>
