<?xml version="1.0" encoding="UTF-8"?>
<svg version="1.1" viewBox="0 0 2048 402" width="3360" height="660" xmlns="http://www.w3.org/2000/svg">
<path transform="translate(1685,19)" d="m0 0h329l10 5 6 7 3 9v323l-3 9-5 6-9 5-4 1h-325l-9-3-8-7-4-9v-327l3-8 8-8z" fill="#D7D7D7"/>
<path transform="translate(1269,18)" d="m0 0h331l8 4 7 8 3 9v322l-3 9-7 8-8 4-6 1h-319l-10-2-8-6-5-8-1-3v-328l5-10 8-6z" fill="#D7D7D7"/>
<path transform="translate(857,18)" d="m0 0h331l10 5 6 8 2 5v328l-5 10-7 6-5 2-7 1h-319l-9-2-6-4-6-7-3-9v-322l4-11 9-8z" fill="#D7D7D7"/>
<path transform="translate(34,18)" d="m0 0h331l8 4 7 8 3 8v324l-4 10-7 7-7 3-6 1h-319l-9-2-8-5-6-9-1-3v-328l5-10 8-6z" fill="#FEB000"/>
<path transform="translate(450,18)" d="m0 0h330l10 5 6 7 2 5v330l-4 8-8 7-5 2-6 1h-319l-10-2-8-6-5-7-1-3v-330l4-8 7-6z" fill="#D7D7D7"/>
<path transform="translate(1849,80)" d="m0 0h8l5 3 4 5 23 53 6 14 74 7 6 3 4 5 1 8-3 6-8 8-8 7-14 12-11 10-11 9-4 4 4 20 12 53-2 9-5 5-3 1h-8l-16-9-28-17-20-12-5 1-28 17-29 17-5 3h-9l-6-4-3-6v-7l16-70-12-12-11-9-13-12-11-9-10-9-2-4v-9l4-6 6-3 75-7 23-54 7-16 5-4z" fill="#FEFEFE"/>
<path transform="translate(1028,79)" d="m0 0 8 1 6 5 11 25 18 42 1 2 16 2 56 5 8 3 4 5 1 9-3 6-12 11-11 9-14 13-11 9-8 7 4 20 11 49 1 9-3 6-6 4h-10l-17-10-20-12-27-16-10 5-55 33h-11l-6-5-2-5 1-10 15-66-1-3-11-9-13-12-11-9-13-12-8-7-2-4v-8l4-6 4-3 17-2 55-5 5-1 23-53 7-16 6-5z" fill="#FEFEFE"/>
<path transform="translate(1434,79)" d="m0 0h9l5 3 8 16 16 38 8 18 67 6 10 2 6 5 2 5-1 8-7 8-14 12-11 10-11 9-13 12-2 1 1 8 14 62v10l-3 5-6 4h-7l-10-5-28-17-27-16-5 1-29 17-15 9-19 11h-7l-7-4-3-6v-7l15-67v-5l-11-10-11-9-14-13-11-9-9-8-2-4v-9l4-6 6-3 63-6 11-1 6-12 13-31 11-25 4-5z" fill="#FEFEFE"/>
<path transform="translate(608,79)" d="m0 0 8 1 6 5 7 15 23 54 28 3 43 4 8 2 5 6 1 2v8l-4 6-13 12-11 9-13 12-11 9-6 6 1 10 14 61v7l-3 6-5 4h-10l-18-10-28-17-18-11-5 2-21 12-28 17-12 7h-10l-6-4-3-8 5-25 11-48-1-4-10-9-11-9-13-12-11-9-10-9-3-6 1-9 4-5 9-3 66-6h6l3-9 23-54 4-8 5-4z" fill="#FEFEFE"/>
<path transform="translate(195,79)" d="m0 0h8l6 4 3 4 23 54 6 13 74 7 6 3 4 5 1 8-3 6-14 13-11 9-13 12-11 9-7 6 1 9 14 61v10l-4 6-5 3h-7l-10-5-28-17-27-16-5 1-29 17-15 9-19 11h-7l-7-4-3-6v-7l16-70-4-5-11-9-14-13-11-9-13-12-5-5-1-2v-8l4-7 7-3 74-7 23-54 7-16 5-4z" fill="#FDFDFD"/>
</svg>
