<?xml version="1.0" encoding="UTF-8"?>
<svg version="1.1" xmlns="http://www.w3.org/2000/svg" width="3360" height="660">
<path d="M0 0 C2.22905033 -0.00461181 4.45809761 -0.01096661 6.68713856 -0.01890898 C12.79798193 -0.03558666 18.908575 -0.02736282 25.01941919 -0.0149641 C30.93740973 -0.00684021 36.85535884 -0.01750731 42.77333984 -0.02755357 C55.62067812 -0.04859199 68.46793673 -0.04680078 81.31528255 -0.03523792 C92.55831091 -0.02516886 103.8013101 -0.02255207 115.04434204 -0.02732849 C116.16375417 -0.0277868 116.16375417 -0.0277868 117.30578069 -0.02825437 C120.33528414 -0.02949976 123.36478758 -0.03077336 126.394291 -0.03209343 C154.80338918 -0.04432471 183.21243667 -0.03324308 211.62152703 -0.01170584 C236.85179713 0.00727607 262.08198647 0.00557753 287.31225586 -0.0135498 C315.66996213 -0.03497632 344.02762363 -0.04345721 372.38533688 -0.03110075 C375.40926551 -0.02981791 378.43319415 -0.02856655 381.4571228 -0.02732849 C382.20167091 -0.02701218 382.94621901 -0.02669587 383.71332917 -0.02636998 C394.94827219 -0.02182338 406.18318281 -0.02713504 417.41812134 -0.0372467 C430.19496528 -0.0486889 442.97171721 -0.04581346 455.7485497 -0.02412373 C462.26733923 -0.01342207 468.78599871 -0.00949391 475.3047905 -0.02272034 C481.27327263 -0.03464705 487.24143909 -0.02807651 493.20989263 -0.00681013 C495.36788476 -0.00234533 497.52590361 -0.00460753 499.68387854 -0.01431328 C514.75209173 -0.07688085 526.80123248 0.57788264 538.25073242 11.50793457 C549.99526073 23.81061867 549.83127486 37.09112971 549.75866699 53.14331055 C549.76327886 55.3599865 549.7696337 57.57665938 549.77757597 59.7933259 C549.7942529 65.86996502 549.78603016 71.94635242 549.7736311 78.02299237 C549.76550693 83.90794992 549.77617445 89.79285428 549.78622056 95.67780446 C549.80725855 108.4533582 549.80546794 121.22883182 549.79390491 134.00439315 C549.78383571 145.1846034 549.78121913 156.36478431 549.78599548 167.54499817 C549.78645379 168.65817174 549.78645379 168.65817174 549.78692136 169.79383366 C549.78816675 172.80645627 549.78944036 175.81907887 549.79076042 178.83170145 C549.8029916 207.08228772 549.79191023 235.33282302 549.77037283 263.58340142 C549.75139094 288.67269368 549.75308947 313.76190473 549.7722168 338.85119629 C549.79364348 367.05068949 549.80212411 395.25013767 549.78976774 423.44963789 C549.78848491 426.45671557 549.78723354 429.46379327 549.78599548 432.47087097 C549.78567917 433.21126962 549.78536286 433.95166827 549.78503697 434.71450325 C549.78049044 445.88665162 549.7858019 457.0587674 549.7959137 468.23091125 C549.80735608 480.93638967 549.80448003 493.64177557 549.78279072 506.34724247 C549.77227923 512.82958995 549.76816044 519.31177263 549.78138733 525.79411888 C549.79331457 531.72929405 549.78674264 537.66415177 549.76547712 543.59929818 C549.76101255 545.74517732 549.76327402 547.89108333 549.77298027 550.03694516 C549.83575946 565.07055522 549.15422669 577.08625443 538.25073242 588.50793457 C525.91788397 600.2812587 512.59144656 600.08823573 496.50146484 600.01586914 C494.27241452 600.02048095 492.04336723 600.02683575 489.81432629 600.03477812 C483.70348292 600.0514558 477.59288985 600.04323196 471.48204565 600.03083324 C465.56405511 600.02270935 459.64610601 600.03337645 453.72812501 600.04342271 C440.88078672 600.06446113 428.03352811 600.06266992 415.18618229 600.05110706 C403.94315393 600.041038 392.70015475 600.03842121 381.4571228 600.04319763 C380.33771067 600.04365594 380.33771067 600.04365594 379.19568416 600.04412351 C376.1661807 600.0453689 373.13667726 600.04664251 370.10717384 600.04796257 C341.69807566 600.06019385 313.28902817 600.04911222 284.87993781 600.02757498 C259.64966771 600.00859307 234.41947838 600.01029161 209.18920898 600.02941895 C180.83150271 600.05084546 152.47384121 600.05932635 124.11612797 600.04696989 C121.09219934 600.04568705 118.06827069 600.04443569 115.04434204 600.04319763 C114.29979394 600.04288132 113.55524584 600.04256501 112.78813567 600.04223912 C101.55319265 600.03769252 90.31828204 600.04300418 79.08334351 600.05311584 C66.30649957 600.06455804 53.52974764 600.0616826 40.75291514 600.03999287 C34.23412562 600.02929121 27.71546614 600.02536305 21.19667435 600.03858948 C15.22819221 600.05051619 9.26002575 600.04394565 3.29157221 600.02267927 C1.13358008 600.01821447 -1.02443877 600.02047667 -3.1824137 600.03018242 C-18.25062688 600.09274999 -30.29976764 599.4379865 -41.74926758 588.50793457 C-53.49379588 576.20525047 -53.32981002 562.92473943 -53.25720215 546.87255859 C-53.26181402 544.65588265 -53.26816885 542.43920976 -53.27611113 540.22254324 C-53.29278806 534.14590412 -53.28456531 528.06951672 -53.27216625 521.99287677 C-53.26404209 516.10791923 -53.2747096 510.22301486 -53.28475571 504.33806469 C-53.30579371 491.56251094 -53.30400309 478.78703732 -53.29244006 466.011476 C-53.28237087 454.83126574 -53.27975428 443.65108483 -53.28453064 432.47087097 C-53.28483618 431.72875526 -53.28514172 430.98663955 -53.28545652 430.22203548 C-53.28670191 427.20941287 -53.28797551 424.19679027 -53.28929557 421.18416769 C-53.30152675 392.93358142 -53.29044539 364.68304612 -53.26890799 336.43246772 C-53.24992609 311.34317546 -53.25162463 286.25396441 -53.27075195 261.16467285 C-53.29217864 232.96517965 -53.30065926 204.76573147 -53.2883029 176.56623125 C-53.28702006 173.55915357 -53.2857687 170.55207587 -53.28453064 167.54499817 C-53.28421433 166.80459952 -53.28389802 166.06420087 -53.28357213 165.30136589 C-53.2790256 154.12921752 -53.28433706 142.95710174 -53.29444885 131.78495789 C-53.30589124 119.07947947 -53.30301519 106.37409357 -53.28132588 93.66862667 C-53.27081439 87.18627919 -53.2666956 80.70409651 -53.27992249 74.22175026 C-53.29184973 68.2865751 -53.28527779 62.35171737 -53.26401228 56.41657096 C-53.2595477 54.27069182 -53.26180918 52.12478581 -53.27151543 49.97892398 C-53.33429462 34.94531393 -52.65276185 22.92961471 -41.74926758 11.50793457 C-29.41641913 -0.26538956 -16.08998171 -0.07236659 0 0 Z " fill="#D7D7D7" transform="translate(2104.749267578125,28.4920654296875)"/>
<path d="M0 0 C2.22905033 -0.00461181 4.45809761 -0.01096661 6.68713856 -0.01890898 C12.79798193 -0.03558666 18.908575 -0.02736282 25.01941919 -0.0149641 C30.93740973 -0.00684021 36.85535884 -0.01750731 42.77333984 -0.02755357 C55.62067812 -0.04859199 68.46793673 -0.04680078 81.31528255 -0.03523792 C92.55831091 -0.02516886 103.8013101 -0.02255207 115.04434204 -0.02732849 C116.16375417 -0.0277868 116.16375417 -0.0277868 117.30578069 -0.02825437 C120.33528414 -0.02949976 123.36478758 -0.03077336 126.394291 -0.03209343 C154.80338918 -0.04432471 183.21243667 -0.03324308 211.62152703 -0.01170584 C236.85179713 0.00727607 262.08198647 0.00557753 287.31225586 -0.0135498 C315.66996213 -0.03497632 344.02762363 -0.04345721 372.38533688 -0.03110075 C375.40926551 -0.02981791 378.43319415 -0.02856655 381.4571228 -0.02732849 C382.20167091 -0.02701218 382.94621901 -0.02669587 383.71332917 -0.02636998 C394.94827219 -0.02182338 406.18318281 -0.02713504 417.41812134 -0.0372467 C430.19496528 -0.0486889 442.97171721 -0.04581346 455.7485497 -0.02412373 C462.26733923 -0.01342207 468.78599871 -0.00949391 475.3047905 -0.02272034 C481.27327263 -0.03464705 487.24143909 -0.02807651 493.20989263 -0.00681013 C495.36788476 -0.00234533 497.52590361 -0.00460753 499.68387854 -0.01431328 C514.75209173 -0.07688085 526.80123248 0.57788264 538.25073242 11.50793457 C549.99526073 23.81061867 549.83127486 37.09112971 549.75866699 53.14331055 C549.76327886 55.3599865 549.7696337 57.57665938 549.77757597 59.7933259 C549.7942529 65.86996502 549.78603016 71.94635242 549.7736311 78.02299237 C549.76550693 83.90794992 549.77617445 89.79285428 549.78622056 95.67780446 C549.80725855 108.4533582 549.80546794 121.22883182 549.79390491 134.00439315 C549.78383571 145.1846034 549.78121913 156.36478431 549.78599548 167.54499817 C549.78645379 168.65817174 549.78645379 168.65817174 549.78692136 169.79383366 C549.78816675 172.80645627 549.78944036 175.81907887 549.79076042 178.83170145 C549.8029916 207.08228772 549.79191023 235.33282302 549.77037283 263.58340142 C549.75139094 288.67269368 549.75308947 313.76190473 549.7722168 338.85119629 C549.79364348 367.05068949 549.80212411 395.25013767 549.78976774 423.44963789 C549.78848491 426.45671557 549.78723354 429.46379327 549.78599548 432.47087097 C549.78567917 433.21126962 549.78536286 433.95166827 549.78503697 434.71450325 C549.78049044 445.88665162 549.7858019 457.0587674 549.7959137 468.23091125 C549.80735608 480.93638967 549.80448003 493.64177557 549.78279072 506.34724247 C549.77227923 512.82958995 549.76816044 519.31177263 549.78138733 525.79411888 C549.79331457 531.72929405 549.78674264 537.66415177 549.76547712 543.59929818 C549.76101255 545.74517732 549.76327402 547.89108333 549.77298027 550.03694516 C549.83575946 565.07055522 549.15422669 577.08625443 538.25073242 588.50793457 C525.91788397 600.2812587 512.59144656 600.08823573 496.50146484 600.01586914 C494.27241452 600.02048095 492.04336723 600.02683575 489.81432629 600.03477812 C483.70348292 600.0514558 477.59288985 600.04323196 471.48204565 600.03083324 C465.56405511 600.02270935 459.64610601 600.03337645 453.72812501 600.04342271 C440.88078672 600.06446113 428.03352811 600.06266992 415.18618229 600.05110706 C403.94315393 600.041038 392.70015475 600.03842121 381.4571228 600.04319763 C380.33771067 600.04365594 380.33771067 600.04365594 379.19568416 600.04412351 C376.1661807 600.0453689 373.13667726 600.04664251 370.10717384 600.04796257 C341.69807566 600.06019385 313.28902817 600.04911222 284.87993781 600.02757498 C259.64966771 600.00859307 234.41947838 600.01029161 209.18920898 600.02941895 C180.83150271 600.05084546 152.47384121 600.05932635 124.11612797 600.04696989 C121.09219934 600.04568705 118.06827069 600.04443569 115.04434204 600.04319763 C114.29979394 600.04288132 113.55524584 600.04256501 112.78813567 600.04223912 C101.55319265 600.03769252 90.31828204 600.04300418 79.08334351 600.05311584 C66.30649957 600.06455804 53.52974764 600.0616826 40.75291514 600.03999287 C34.23412562 600.02929121 27.71546614 600.02536305 21.19667435 600.03858948 C15.22819221 600.05051619 9.26002575 600.04394565 3.29157221 600.02267927 C1.13358008 600.01821447 -1.02443877 600.02047667 -3.1824137 600.03018242 C-18.25062688 600.09274999 -30.29976764 599.4379865 -41.74926758 588.50793457 C-53.49379588 576.20525047 -53.32981002 562.92473943 -53.25720215 546.87255859 C-53.26181402 544.65588265 -53.26816885 542.43920976 -53.27611113 540.22254324 C-53.29278806 534.14590412 -53.28456531 528.06951672 -53.27216625 521.99287677 C-53.26404209 516.10791923 -53.2747096 510.22301486 -53.28475571 504.33806469 C-53.30579371 491.56251094 -53.30400309 478.78703732 -53.29244006 466.011476 C-53.28237087 454.83126574 -53.27975428 443.65108483 -53.28453064 432.47087097 C-53.28483618 431.72875526 -53.28514172 430.98663955 -53.28545652 430.22203548 C-53.28670191 427.20941287 -53.28797551 424.19679027 -53.28929557 421.18416769 C-53.30152675 392.93358142 -53.29044539 364.68304612 -53.26890799 336.43246772 C-53.24992609 311.34317546 -53.25162463 286.25396441 -53.27075195 261.16467285 C-53.29217864 232.96517965 -53.30065926 204.76573147 -53.2883029 176.56623125 C-53.28702006 173.55915357 -53.2857687 170.55207587 -53.28453064 167.54499817 C-53.28421433 166.80459952 -53.28389802 166.06420087 -53.28357213 165.30136589 C-53.2790256 154.12921752 -53.28433706 142.95710174 -53.29444885 131.78495789 C-53.30589124 119.07947947 -53.30301519 106.37409357 -53.28132588 93.66862667 C-53.27081439 87.18627919 -53.2666956 80.70409651 -53.27992249 74.22175026 C-53.29184973 68.2865751 -53.28527779 62.35171737 -53.26401228 56.41657096 C-53.2595477 54.27069182 -53.26180918 52.12478581 -53.27151543 49.97892398 C-53.33429462 34.94531393 -52.65276185 22.92961471 -41.74926758 11.50793457 C-29.41641913 -0.26538956 -16.08998171 -0.07236659 0 0 Z " fill="#D7D7D7" transform="translate(1429.749267578125,28.4920654296875)"/>
<path d="M0 0 C2.22905033 -0.00461181 4.45809761 -0.01096661 6.68713856 -0.01890898 C12.79798193 -0.03558666 18.908575 -0.02736282 25.01941919 -0.0149641 C30.93740973 -0.00684021 36.85535884 -0.01750731 42.77333984 -0.02755357 C55.62067812 -0.04859199 68.46793673 -0.04680078 81.31528255 -0.03523792 C92.55831091 -0.02516886 103.8013101 -0.02255207 115.04434204 -0.02732849 C116.16375417 -0.0277868 116.16375417 -0.0277868 117.30578069 -0.02825437 C120.33528414 -0.02949976 123.36478758 -0.03077336 126.394291 -0.03209343 C154.80338918 -0.04432471 183.21243667 -0.03324308 211.62152703 -0.01170584 C236.85179713 0.00727607 262.08198647 0.00557753 287.31225586 -0.0135498 C315.66996213 -0.03497632 344.02762363 -0.04345721 372.38533688 -0.03110075 C375.40926551 -0.02981791 378.43319415 -0.02856655 381.4571228 -0.02732849 C382.20167091 -0.02701218 382.94621901 -0.02669587 383.71332917 -0.02636998 C394.94827219 -0.02182338 406.18318281 -0.02713504 417.41812134 -0.0372467 C430.19496528 -0.0486889 442.97171721 -0.04581346 455.7485497 -0.02412373 C462.26733923 -0.01342207 468.78599871 -0.00949391 475.3047905 -0.02272034 C481.27327263 -0.03464705 487.24143909 -0.02807651 493.20989263 -0.00681013 C495.36788476 -0.00234533 497.52590361 -0.00460753 499.68387854 -0.01431328 C514.75209173 -0.07688085 526.80123248 0.57788264 538.25073242 11.50793457 C549.99526073 23.81061867 549.83127486 37.09112971 549.75866699 53.14331055 C549.76327886 55.3599865 549.7696337 57.57665938 549.77757597 59.7933259 C549.7942529 65.86996502 549.78603016 71.94635242 549.7736311 78.02299237 C549.76550693 83.90794992 549.77617445 89.79285428 549.78622056 95.67780446 C549.80725855 108.4533582 549.80546794 121.22883182 549.79390491 134.00439315 C549.78383571 145.1846034 549.78121913 156.36478431 549.78599548 167.54499817 C549.78645379 168.65817174 549.78645379 168.65817174 549.78692136 169.79383366 C549.78816675 172.80645627 549.78944036 175.81907887 549.79076042 178.83170145 C549.8029916 207.08228772 549.79191023 235.33282302 549.77037283 263.58340142 C549.75139094 288.67269368 549.75308947 313.76190473 549.7722168 338.85119629 C549.79364348 367.05068949 549.80212411 395.25013767 549.78976774 423.44963789 C549.78848491 426.45671557 549.78723354 429.46379327 549.78599548 432.47087097 C549.78567917 433.21126962 549.78536286 433.95166827 549.78503697 434.71450325 C549.78049044 445.88665162 549.7858019 457.0587674 549.7959137 468.23091125 C549.80735608 480.93638967 549.80448003 493.64177557 549.78279072 506.34724247 C549.77227923 512.82958995 549.76816044 519.31177263 549.78138733 525.79411888 C549.79331457 531.72929405 549.78674264 537.66415177 549.76547712 543.59929818 C549.76101255 545.74517732 549.76327402 547.89108333 549.77298027 550.03694516 C549.83575946 565.07055522 549.15422669 577.08625443 538.25073242 588.50793457 C525.91788397 600.2812587 512.59144656 600.08823573 496.50146484 600.01586914 C494.27241452 600.02048095 492.04336723 600.02683575 489.81432629 600.03477812 C483.70348292 600.0514558 477.59288985 600.04323196 471.48204565 600.03083324 C465.56405511 600.02270935 459.64610601 600.03337645 453.72812501 600.04342271 C440.88078672 600.06446113 428.03352811 600.06266992 415.18618229 600.05110706 C403.94315393 600.041038 392.70015475 600.03842121 381.4571228 600.04319763 C380.33771067 600.04365594 380.33771067 600.04365594 379.19568416 600.04412351 C376.1661807 600.0453689 373.13667726 600.04664251 370.10717384 600.04796257 C341.69807566 600.06019385 313.28902817 600.04911222 284.87993781 600.02757498 C259.64966771 600.00859307 234.41947838 600.01029161 209.18920898 600.02941895 C180.83150271 600.05084546 152.47384121 600.05932635 124.11612797 600.04696989 C121.09219934 600.04568705 118.06827069 600.04443569 115.04434204 600.04319763 C114.29979394 600.04288132 113.55524584 600.04256501 112.78813567 600.04223912 C101.55319265 600.03769252 90.31828204 600.04300418 79.08334351 600.05311584 C66.30649957 600.06455804 53.52974764 600.0616826 40.75291514 600.03999287 C34.23412562 600.02929121 27.71546614 600.02536305 21.19667435 600.03858948 C15.22819221 600.05051619 9.26002575 600.04394565 3.29157221 600.02267927 C1.13358008 600.01821447 -1.02443877 600.02047667 -3.1824137 600.03018242 C-18.25062688 600.09274999 -30.29976764 599.4379865 -41.74926758 588.50793457 C-53.49379588 576.20525047 -53.32981002 562.92473943 -53.25720215 546.87255859 C-53.26181402 544.65588265 -53.26816885 542.43920976 -53.27611113 540.22254324 C-53.29278806 534.14590412 -53.28456531 528.06951672 -53.27216625 521.99287677 C-53.26404209 516.10791923 -53.2747096 510.22301486 -53.28475571 504.33806469 C-53.30579371 491.56251094 -53.30400309 478.78703732 -53.29244006 466.011476 C-53.28237087 454.83126574 -53.27975428 443.65108483 -53.28453064 432.47087097 C-53.28483618 431.72875526 -53.28514172 430.98663955 -53.28545652 430.22203548 C-53.28670191 427.20941287 -53.28797551 424.19679027 -53.28929557 421.18416769 C-53.30152675 392.93358142 -53.29044539 364.68304612 -53.26890799 336.43246772 C-53.24992609 311.34317546 -53.25162463 286.25396441 -53.27075195 261.16467285 C-53.29217864 232.96517965 -53.30065926 204.76573147 -53.2883029 176.56623125 C-53.28702006 173.55915357 -53.2857687 170.55207587 -53.28453064 167.54499817 C-53.28421433 166.80459952 -53.28389802 166.06420087 -53.28357213 165.30136589 C-53.2790256 154.12921752 -53.28433706 142.95710174 -53.29444885 131.78495789 C-53.30589124 119.07947947 -53.30301519 106.37409357 -53.28132588 93.66862667 C-53.27081439 87.18627919 -53.2666956 80.70409651 -53.27992249 74.22175026 C-53.29184973 68.2865751 -53.28527779 62.35171737 -53.26401228 56.41657096 C-53.2595477 54.27069182 -53.26180918 52.12478581 -53.27151543 49.97892398 C-53.33429462 34.94531393 -52.65276185 22.92961471 -41.74926758 11.50793457 C-29.41641913 -0.26538956 -16.08998171 -0.07236659 0 0 Z " fill="#D7D7D7" transform="translate(78.749267578125,28.4920654296875)"/>
<path d="M0 0 C2.22905033 -0.00461181 4.45809761 -0.01096661 6.68713856 -0.01890898 C12.79798193 -0.03558666 18.908575 -0.02736282 25.01941919 -0.0149641 C30.93740973 -0.00684021 36.85535884 -0.01750731 42.77333984 -0.02755357 C55.62067812 -0.04859199 68.46793673 -0.04680078 81.31528255 -0.03523792 C92.55831091 -0.02516886 103.8013101 -0.02255207 115.04434204 -0.02732849 C116.16375417 -0.0277868 116.16375417 -0.0277868 117.30578069 -0.02825437 C120.33528414 -0.02949976 123.36478758 -0.03077336 126.394291 -0.03209343 C154.80338918 -0.04432471 183.21243667 -0.03324308 211.62152703 -0.01170584 C236.85179713 0.00727607 262.08198647 0.00557753 287.31225586 -0.0135498 C315.66996213 -0.03497632 344.02762363 -0.04345721 372.38533688 -0.03110075 C375.40926551 -0.02981791 378.43319415 -0.02856655 381.4571228 -0.02732849 C382.20167091 -0.02701218 382.94621901 -0.02669587 383.71332917 -0.02636998 C394.94827219 -0.02182338 406.18318281 -0.02713504 417.41812134 -0.0372467 C430.19496528 -0.0486889 442.97171721 -0.04581346 455.7485497 -0.02412373 C462.26733923 -0.01342207 468.78599871 -0.00949391 475.3047905 -0.02272034 C481.27327263 -0.03464705 487.24143909 -0.02807651 493.20989263 -0.00681013 C495.36788476 -0.00234533 497.52590361 -0.00460753 499.68387854 -0.01431328 C514.75209173 -0.07688085 526.80123248 0.57788264 538.25073242 11.50793457 C549.99526073 23.81061867 549.83127486 37.09112971 549.75866699 53.14331055 C549.76327886 55.3599865 549.7696337 57.57665938 549.77757597 59.7933259 C549.7942529 65.86996502 549.78603016 71.94635242 549.7736311 78.02299237 C549.76550693 83.90794992 549.77617445 89.79285428 549.78622056 95.67780446 C549.80725855 108.4533582 549.80546794 121.22883182 549.79390491 134.00439315 C549.78383571 145.1846034 549.78121913 156.36478431 549.78599548 167.54499817 C549.78645379 168.65817174 549.78645379 168.65817174 549.78692136 169.79383366 C549.78816675 172.80645627 549.78944036 175.81907887 549.79076042 178.83170145 C549.8029916 207.08228772 549.79191023 235.33282302 549.77037283 263.58340142 C549.75139094 288.67269368 549.75308947 313.76190473 549.7722168 338.85119629 C549.79364348 367.05068949 549.80212411 395.25013767 549.78976774 423.44963789 C549.78848491 426.45671557 549.78723354 429.46379327 549.78599548 432.47087097 C549.78567917 433.21126962 549.78536286 433.95166827 549.78503697 434.71450325 C549.78049044 445.88665162 549.7858019 457.0587674 549.7959137 468.23091125 C549.80735608 480.93638967 549.80448003 493.64177557 549.78279072 506.34724247 C549.77227923 512.82958995 549.76816044 519.31177263 549.78138733 525.79411888 C549.79331457 531.72929405 549.78674264 537.66415177 549.76547712 543.59929818 C549.76101255 545.74517732 549.76327402 547.89108333 549.77298027 550.03694516 C549.83575946 565.07055522 549.15422669 577.08625443 538.25073242 588.50793457 C525.91788397 600.2812587 512.59144656 600.08823573 496.50146484 600.01586914 C494.27241452 600.02048095 492.04336723 600.02683575 489.81432629 600.03477812 C483.70348292 600.0514558 477.59288985 600.04323196 471.48204565 600.03083324 C465.56405511 600.02270935 459.64610601 600.03337645 453.72812501 600.04342271 C440.88078672 600.06446113 428.03352811 600.06266992 415.18618229 600.05110706 C403.94315393 600.041038 392.70015475 600.03842121 381.4571228 600.04319763 C380.33771067 600.04365594 380.33771067 600.04365594 379.19568416 600.04412351 C376.1661807 600.0453689 373.13667726 600.04664251 370.10717384 600.04796257 C341.69807566 600.06019385 313.28902817 600.04911222 284.87993781 600.02757498 C259.64966771 600.00859307 234.41947838 600.01029161 209.18920898 600.02941895 C180.83150271 600.05084546 152.47384121 600.05932635 124.11612797 600.04696989 C121.09219934 600.04568705 118.06827069 600.04443569 115.04434204 600.04319763 C114.29979394 600.04288132 113.55524584 600.04256501 112.78813567 600.04223912 C101.55319265 600.03769252 90.31828204 600.04300418 79.08334351 600.05311584 C66.30649957 600.06455804 53.52974764 600.0616826 40.75291514 600.03999287 C34.23412562 600.02929121 27.71546614 600.02536305 21.19667435 600.03858948 C15.22819221 600.05051619 9.26002575 600.04394565 3.29157221 600.02267927 C1.13358008 600.01821447 -1.02443877 600.02047667 -3.1824137 600.03018242 C-18.25062688 600.09274999 -30.29976764 599.4379865 -41.74926758 588.50793457 C-53.49379588 576.20525047 -53.32981002 562.92473943 -53.25720215 546.87255859 C-53.26181402 544.65588265 -53.26816885 542.43920976 -53.27611113 540.22254324 C-53.29278806 534.14590412 -53.28456531 528.06951672 -53.27216625 521.99287677 C-53.26404209 516.10791923 -53.2747096 510.22301486 -53.28475571 504.33806469 C-53.30579371 491.56251094 -53.30400309 478.78703732 -53.29244006 466.011476 C-53.28237087 454.83126574 -53.27975428 443.65108483 -53.28453064 432.47087097 C-53.28483618 431.72875526 -53.28514172 430.98663955 -53.28545652 430.22203548 C-53.28670191 427.20941287 -53.28797551 424.19679027 -53.28929557 421.18416769 C-53.30152675 392.93358142 -53.29044539 364.68304612 -53.26890799 336.43246772 C-53.24992609 311.34317546 -53.25162463 286.25396441 -53.27075195 261.16467285 C-53.29217864 232.96517965 -53.30065926 204.76573147 -53.2883029 176.56623125 C-53.28702006 173.55915357 -53.2857687 170.55207587 -53.28453064 167.54499817 C-53.28421433 166.80459952 -53.28389802 166.06420087 -53.28357213 165.30136589 C-53.2790256 154.12921752 -53.28433706 142.95710174 -53.29444885 131.78495789 C-53.30589124 119.07947947 -53.30301519 106.37409357 -53.28132588 93.66862667 C-53.27081439 87.18627919 -53.2666956 80.70409651 -53.27992249 74.22175026 C-53.29184973 68.2865751 -53.28527779 62.35171737 -53.26401228 56.41657096 C-53.2595477 54.27069182 -53.26180918 52.12478581 -53.27151543 49.97892398 C-53.33429462 34.94531393 -52.65276185 22.92961471 -41.74926758 11.50793457 C-29.41641913 -0.26538956 -16.08998171 -0.07236659 0 0 Z " fill="#D7D7D7" transform="translate(760.749267578125,28.4920654296875)"/>
<path d="M0 0 C2.22905033 -0.00461181 4.45809761 -0.01096661 6.68713856 -0.01890898 C12.79798193 -0.03558666 18.908575 -0.02736282 25.01941919 -0.0149641 C30.93740973 -0.00684021 36.85535884 -0.01750731 42.77333984 -0.02755357 C55.62067812 -0.04859199 68.46793673 -0.04680078 81.31528255 -0.03523792 C92.55831091 -0.02516886 103.8013101 -0.02255207 115.04434204 -0.02732849 C116.16375417 -0.0277868 116.16375417 -0.0277868 117.30578069 -0.02825437 C120.33528414 -0.02949976 123.36478758 -0.03077336 126.394291 -0.03209343 C154.80338918 -0.04432471 183.21243667 -0.03324308 211.62152703 -0.01170584 C236.85179713 0.00727607 262.08198647 0.00557753 287.31225586 -0.0135498 C315.66996213 -0.03497632 344.02762363 -0.04345721 372.38533688 -0.03110075 C375.40926551 -0.02981791 378.43319415 -0.02856655 381.4571228 -0.02732849 C382.20167091 -0.02701218 382.94621901 -0.02669587 383.71332917 -0.02636998 C394.94827219 -0.02182338 406.18318281 -0.02713504 417.41812134 -0.0372467 C430.19496528 -0.0486889 442.97171721 -0.04581346 455.7485497 -0.02412373 C462.26733923 -0.01342207 468.78599871 -0.00949391 475.3047905 -0.02272034 C481.27327263 -0.03464705 487.24143909 -0.02807651 493.20989263 -0.00681013 C495.36788476 -0.00234533 497.52590361 -0.00460753 499.68387854 -0.01431328 C514.75209173 -0.07688085 526.80123248 0.57788264 538.25073242 11.50793457 C549.99526073 23.81061867 549.83127486 37.09112971 549.75866699 53.14331055 C549.76327886 55.3599865 549.7696337 57.57665938 549.77757597 59.7933259 C549.7942529 65.86996502 549.78603016 71.94635242 549.7736311 78.02299237 C549.76550693 83.90794992 549.77617445 89.79285428 549.78622056 95.67780446 C549.80725855 108.4533582 549.80546794 121.22883182 549.79390491 134.00439315 C549.78383571 145.1846034 549.78121913 156.36478431 549.78599548 167.54499817 C549.78645379 168.65817174 549.78645379 168.65817174 549.78692136 169.79383366 C549.78816675 172.80645627 549.78944036 175.81907887 549.79076042 178.83170145 C549.8029916 207.08228772 549.79191023 235.33282302 549.77037283 263.58340142 C549.75139094 288.67269368 549.75308947 313.76190473 549.7722168 338.85119629 C549.79364348 367.05068949 549.80212411 395.25013767 549.78976774 423.44963789 C549.78848491 426.45671557 549.78723354 429.46379327 549.78599548 432.47087097 C549.78567917 433.21126962 549.78536286 433.95166827 549.78503697 434.71450325 C549.78049044 445.88665162 549.7858019 457.0587674 549.7959137 468.23091125 C549.80735608 480.93638967 549.80448003 493.64177557 549.78279072 506.34724247 C549.77227923 512.82958995 549.76816044 519.31177263 549.78138733 525.79411888 C549.79331457 531.72929405 549.78674264 537.66415177 549.76547712 543.59929818 C549.76101255 545.74517732 549.76327402 547.89108333 549.77298027 550.03694516 C549.83575946 565.07055522 549.15422669 577.08625443 538.25073242 588.50793457 C525.91788397 600.2812587 512.59144656 600.08823573 496.50146484 600.01586914 C494.27241452 600.02048095 492.04336723 600.02683575 489.81432629 600.03477812 C483.70348292 600.0514558 477.59288985 600.04323196 471.48204565 600.03083324 C465.56405511 600.02270935 459.64610601 600.03337645 453.72812501 600.04342271 C440.88078672 600.06446113 428.03352811 600.06266992 415.18618229 600.05110706 C403.94315393 600.041038 392.70015475 600.03842121 381.4571228 600.04319763 C380.33771067 600.04365594 380.33771067 600.04365594 379.19568416 600.04412351 C376.1661807 600.0453689 373.13667726 600.04664251 370.10717384 600.04796257 C341.69807566 600.06019385 313.28902817 600.04911222 284.87993781 600.02757498 C259.64966771 600.00859307 234.41947838 600.01029161 209.18920898 600.02941895 C180.83150271 600.05084546 152.47384121 600.05932635 124.11612797 600.04696989 C121.09219934 600.04568705 118.06827069 600.04443569 115.04434204 600.04319763 C114.29979394 600.04288132 113.55524584 600.04256501 112.78813567 600.04223912 C101.55319265 600.03769252 90.31828204 600.04300418 79.08334351 600.05311584 C66.30649957 600.06455804 53.52974764 600.0616826 40.75291514 600.03999287 C34.23412562 600.02929121 27.71546614 600.02536305 21.19667435 600.03858948 C15.22819221 600.05051619 9.26002575 600.04394565 3.29157221 600.02267927 C1.13358008 600.01821447 -1.02443877 600.02047667 -3.1824137 600.03018242 C-18.25062688 600.09274999 -30.29976764 599.4379865 -41.74926758 588.50793457 C-53.49379588 576.20525047 -53.32981002 562.92473943 -53.25720215 546.87255859 C-53.26181402 544.65588265 -53.26816885 542.43920976 -53.27611113 540.22254324 C-53.29278806 534.14590412 -53.28456531 528.06951672 -53.27216625 521.99287677 C-53.26404209 516.10791923 -53.2747096 510.22301486 -53.28475571 504.33806469 C-53.30579371 491.56251094 -53.30400309 478.78703732 -53.29244006 466.011476 C-53.28237087 454.83126574 -53.27975428 443.65108483 -53.28453064 432.47087097 C-53.28483618 431.72875526 -53.28514172 430.98663955 -53.28545652 430.22203548 C-53.28670191 427.20941287 -53.28797551 424.19679027 -53.28929557 421.18416769 C-53.30152675 392.93358142 -53.29044539 364.68304612 -53.26890799 336.43246772 C-53.24992609 311.34317546 -53.25162463 286.25396441 -53.27075195 261.16467285 C-53.29217864 232.96517965 -53.30065926 204.76573147 -53.2883029 176.56623125 C-53.28702006 173.55915357 -53.2857687 170.55207587 -53.28453064 167.54499817 C-53.28421433 166.80459952 -53.28389802 166.06420087 -53.28357213 165.30136589 C-53.2790256 154.12921752 -53.28433706 142.95710174 -53.29444885 131.78495789 C-53.30589124 119.07947947 -53.30301519 106.37409357 -53.28132588 93.66862667 C-53.27081439 87.18627919 -53.2666956 80.70409651 -53.27992249 74.22175026 C-53.29184973 68.2865751 -53.28527779 62.35171737 -53.26401228 56.41657096 C-53.2595477 54.27069182 -53.26180918 52.12478581 -53.27151543 49.97892398 C-53.33429462 34.94531393 -52.65276185 22.92961471 -41.74926758 11.50793457 C-29.41641913 -0.26538956 -16.08998171 -0.07236659 0 0 Z " fill="#D7D7D7" transform="translate(2785.749267578125,30.4920654296875)"/>
<path d="M0 0 C6.50703884 4.70699948 9.80209285 10.90898051 12.8046875 18.19140625 C13.18386826 19.08290375 13.56304901 19.97440125 13.95372009 20.89291382 C15.15435361 23.72448375 16.33692027 26.56320693 17.51953125 29.40234375 C18.31593123 31.28433108 19.11344835 33.16584608 19.91210938 35.046875 C23.58786061 43.7354826 27.18483488 52.43969469 30.47607422 61.28222656 C31.63163936 64.2214689 33.02961308 66.96953955 34.49609375 69.76171875 C35.64600312 72.17372376 36.51377961 74.62987106 37.39453125 77.15234375 C38.69335645 80.8501755 40.15165095 84.29908812 41.95703125 87.77734375 C43.74212811 91.21692064 45.18229389 94.61761391 46.45703125 98.27734375 C48.06519697 102.89264863 50.03786325 107.16376902 52.30859375 111.48828125 C54.07579621 115.01066439 55.45703125 117.79799642 55.45703125 121.77734375 C56.2663208 121.79716309 57.07561035 121.81698242 57.90942383 121.83740234 C97.6895617 122.85878045 97.6895617 122.85878045 106.18798828 125.26806641 C109.51056168 126.01380431 112.86515414 126.18972914 116.25390625 126.42578125 C117.85392809 126.54329992 119.45394412 126.66089772 121.05395508 126.77856445 C121.89455475 126.83920074 122.73515442 126.89983704 123.60122681 126.96231079 C128.01125228 127.2839198 132.41953322 127.62814703 136.828125 127.96875 C142.73893366 128.4244127 148.65022431 128.86361998 154.56454468 129.2711792 C157.45627787 129.47579281 160.34605218 129.701816 163.23571777 129.93365479 C165.21476094 130.0856376 167.1957972 130.21092745 169.17675781 130.33544922 C177.86512566 131.05697857 184.96472188 133.06557873 191.13623047 139.53857422 C195.45904449 145.16754031 196.13873397 150.84455568 195.45703125 157.77734375 C193.0790454 169.01278147 183.33674313 175.76556306 175.015625 182.7578125 C171.85925504 185.41585271 168.80285931 188.16652246 165.76953125 190.96484375 C162.31687429 194.13565117 158.80172159 197.15769406 155.14453125 200.08984375 C150.08866558 204.1648282 145.37515902 208.52966369 140.65136719 212.97753906 C136.33511688 217.01974173 131.85217759 220.77315175 127.234375 224.46875 C123.45802456 227.60774172 119.89908058 230.95757588 116.31689453 234.31420898 C111.89935474 238.42925917 107.31848587 242.26438003 102.6015625 246.03515625 C100.41677122 247.74895887 100.41677122 247.74895887 98.45703125 249.77734375 C98.92473672 258.24781454 101.58595978 266.76715468 103.64453125 274.96484375 C106.29133976 285.69665138 108.70927553 296.45519905 110.95703125 307.27734375 C113.67811505 320.3608005 116.68260959 333.34832229 119.87890625 346.32421875 C120.97322112 350.78646368 122.06494467 355.24916141 123.12890625 359.71875 C123.3722168 360.73396729 123.61552734 361.74918457 123.86621094 362.79516602 C125.54305731 371.25908275 125.19531563 378.15517221 120.875 385.71875 C117.05312359 391.26731437 111.55714982 393.89825635 105.125 395.27734375 C96.32976063 396.12126477 89.86121576 391.63506241 82.70947266 387.17626953 C80.38477937 385.73247021 78.04032073 384.32713481 75.6875 382.9296875 C71.4589678 380.41580922 67.24477673 377.87906143 63.03466797 375.33447266 C58.78390962 372.76662489 54.52718185 370.20874308 50.26953125 367.65234375 C49.43131836 367.14880371 48.59310547 366.64526367 47.72949219 366.12646484 C42.65643389 363.08322367 37.5645192 360.07483764 32.45703125 357.08984375 C20.99024222 350.38354815 9.66889948 343.43141022 -1.67480469 336.51977539 C-3.0945459 335.65727173 -3.0945459 335.65727173 -4.54296875 334.77734375 C-5.42436523 334.20685303 -6.30576172 333.6363623 -7.21386719 333.04858398 C-10.72407783 331.13268599 -12.72372334 331.75031977 -16.54296875 332.77734375 C-19.51884583 334.23337718 -22.26608881 335.97532592 -25.04296875 337.77734375 C-26.65198889 338.79092813 -28.26136878 339.80394163 -29.87109375 340.81640625 C-30.66451172 341.32075195 -31.45792969 341.82509766 -32.27539062 342.34472656 C-35.41859758 344.33055111 -38.59998953 346.24793907 -41.79296875 348.15234375 C-42.38505127 348.50707764 -42.97713379 348.86181152 -43.5871582 349.22729492 C-50.07003006 353.10616094 -56.58131649 356.93714009 -63.08813477 360.77563477 C-69.15093236 364.35516344 -75.19749253 367.9603085 -81.23046875 371.58984375 C-89.52498596 376.57863058 -97.84232928 381.52824191 -106.16796875 386.46484375 C-106.77176361 386.82317291 -107.37555847 387.18150208 -107.99765015 387.5506897 C-109.71282852 388.56840381 -111.42866578 389.58500726 -113.14453125 390.6015625 C-114.63460693 391.4846106 -114.63460693 391.4846106 -116.15478516 392.38549805 C-121.53012702 395.51827498 -126.38831711 395.42081901 -132.54296875 394.77734375 C-140.06365623 392.44490663 -143.85638569 387.47902509 -147.54296875 380.77734375 C-151.61870428 372.62587269 -147.24846079 360.36787521 -145.34472656 351.96337891 C-144.79771514 349.54829929 -144.2664939 347.1301908 -143.73828125 344.7109375 C-142.11508778 337.34510617 -140.38730963 330.02603339 -138.3984375 322.75 C-136.8372306 317.01688002 -135.60670432 311.31795116 -134.60546875 305.46484375 C-133.42433255 298.90429297 -131.99999862 292.54176754 -130.10546875 286.15234375 C-129.22758526 283.03360363 -128.38528027 279.90584731 -127.54296875 276.77734375 C-127.24487305 275.7104834 -126.94677734 274.64362305 -126.63964844 273.54443359 C-122.51928056 260.66612696 -122.51928056 260.66612696 -123.32861328 247.64306641 C-125.78618099 244.07954268 -129.10779107 241.91956908 -132.82080078 239.79541016 C-135.43654055 238.24910524 -137.66772787 236.30206521 -139.98046875 234.33984375 C-140.87636719 233.61925781 -141.77226563 232.89867187 -142.6953125 232.15625 C-146.49814588 228.97939743 -150.09360005 225.60330576 -153.70898438 222.21679688 C-157.03434152 219.1196891 -160.43007682 216.18119999 -163.98046875 213.33984375 C-169.00138823 209.31287631 -173.66718692 204.98519672 -178.34912109 200.57666016 C-182.66177726 196.53789839 -187.14135646 192.78787173 -191.75390625 189.09375 C-195.60160496 185.89811227 -199.25247632 182.5090278 -202.8984375 179.08666992 C-205.88716849 176.2838344 -208.9262026 173.61566823 -212.10546875 171.02734375 C-216.50551433 167.16683864 -219.07025756 163.1841244 -219.8828125 157.328125 C-220.13468858 150.74912169 -219.15689966 144.97846203 -214.92578125 139.796875 C-205.98244617 130.4888975 -194.73993109 130.61171912 -182.4375 130.12109375 C-178.28328378 129.89172265 -174.17781397 129.37452161 -170.0546875 128.8359375 C-161.56865251 127.7323367 -153.07255985 127.00965142 -144.54296875 126.33984375 C-141.38389803 126.08727603 -138.22508828 125.83159983 -135.06640625 125.57421875 C-134.27414642 125.50975052 -133.4818866 125.44528229 -132.6656189 125.37886047 C-127.29971697 124.93665717 -121.94023935 124.44491074 -116.58203125 123.91796875 C-115.50946075 123.81324501 -115.50946075 123.81324501 -114.41522217 123.70640564 C-111.05054621 123.37689416 -107.68701884 123.04001973 -104.32421875 122.69165039 C-96.01661855 121.87092211 -87.88831361 121.62623528 -79.54296875 121.77734375 C-79.42848389 121.07383789 -79.31399902 120.37033203 -79.19604492 119.64550781 C-78.48156305 116.5076637 -77.392758 113.83104391 -76.09375 110.88671875 C-75.58255615 109.71931152 -75.0713623 108.5519043 -74.54467773 107.34912109 C-74.27017792 106.72817566 -73.9956781 106.10723022 -73.71286011 105.46746826 C-72.22645835 102.10400483 -70.75696833 98.73314797 -69.28515625 95.36328125 C-68.9773674 94.6597049 -68.66957855 93.95612854 -68.35246277 93.23123169 C-65.0024942 85.56335535 -61.73893894 77.85943579 -58.48046875 70.15234375 C-57.31030751 67.38784644 -56.13958343 64.62358768 -54.96875 61.859375 C-54.68253281 61.18353867 -54.39631561 60.50770233 -54.10142517 59.81138611 C-49.7179241 49.46457661 -45.30033043 39.13267826 -40.84765625 28.81542969 C-39.6288508 25.97732808 -38.42757218 23.13246258 -37.23046875 20.28515625 C-36.54348428 18.67816493 -35.85602408 17.07137686 -35.16796875 15.46484375 C-34.88260254 14.77205322 -34.59723633 14.0792627 -34.30322266 13.36547852 C-31.437977 6.75788806 -27.1826524 0.92245706 -20.54296875 -2.22265625 C-12.92016334 -4.42759996 -7.06444187 -3.47950122 0 0 Z " fill="#FEFEFE" transform="translate(1702.54296875,133.22265625)"/>
<path d="M0 0 C6.50703884 4.70699948 9.80209285 10.90898051 12.8046875 18.19140625 C13.18386826 19.08290375 13.56304901 19.97440125 13.95372009 20.89291382 C15.15435361 23.72448375 16.33692027 26.56320693 17.51953125 29.40234375 C18.31593123 31.28433108 19.11344835 33.16584608 19.91210938 35.046875 C23.58786061 43.7354826 27.18483488 52.43969469 30.47607422 61.28222656 C31.63163936 64.2214689 33.02961308 66.96953955 34.49609375 69.76171875 C35.64600312 72.17372376 36.51377961 74.62987106 37.39453125 77.15234375 C38.69335645 80.8501755 40.15165095 84.29908812 41.95703125 87.77734375 C43.74212811 91.21692064 45.18229389 94.61761391 46.45703125 98.27734375 C48.06519697 102.89264863 50.03786325 107.16376902 52.30859375 111.48828125 C54.07579621 115.01066439 55.45703125 117.79799642 55.45703125 121.77734375 C56.2663208 121.79716309 57.07561035 121.81698242 57.90942383 121.83740234 C97.6895617 122.85878045 97.6895617 122.85878045 106.18798828 125.26806641 C109.51056168 126.01380431 112.86515414 126.18972914 116.25390625 126.42578125 C117.85392809 126.54329992 119.45394412 126.66089772 121.05395508 126.77856445 C121.89455475 126.83920074 122.73515442 126.89983704 123.60122681 126.96231079 C128.01125228 127.2839198 132.41953322 127.62814703 136.828125 127.96875 C142.73893366 128.4244127 148.65022431 128.86361998 154.56454468 129.2711792 C157.45627787 129.47579281 160.34605218 129.701816 163.23571777 129.93365479 C165.21476094 130.0856376 167.1957972 130.21092745 169.17675781 130.33544922 C177.86512566 131.05697857 184.96472188 133.06557873 191.13623047 139.53857422 C195.45904449 145.16754031 196.13873397 150.84455568 195.45703125 157.77734375 C193.0790454 169.01278147 183.33674313 175.76556306 175.015625 182.7578125 C171.85925504 185.41585271 168.80285931 188.16652246 165.76953125 190.96484375 C162.31687429 194.13565117 158.80172159 197.15769406 155.14453125 200.08984375 C150.08866558 204.1648282 145.37515902 208.52966369 140.65136719 212.97753906 C136.33511688 217.01974173 131.85217759 220.77315175 127.234375 224.46875 C123.45802456 227.60774172 119.89908058 230.95757588 116.31689453 234.31420898 C111.89935474 238.42925917 107.31848587 242.26438003 102.6015625 246.03515625 C100.41677122 247.74895887 100.41677122 247.74895887 98.45703125 249.77734375 C98.92473672 258.24781454 101.58595978 266.76715468 103.64453125 274.96484375 C106.29133976 285.69665138 108.70927553 296.45519905 110.95703125 307.27734375 C113.67811505 320.3608005 116.68260959 333.34832229 119.87890625 346.32421875 C120.97322112 350.78646368 122.06494467 355.24916141 123.12890625 359.71875 C123.3722168 360.73396729 123.61552734 361.74918457 123.86621094 362.79516602 C125.54305731 371.25908275 125.19531563 378.15517221 120.875 385.71875 C117.05312359 391.26731437 111.55714982 393.89825635 105.125 395.27734375 C96.32976063 396.12126477 89.86121576 391.63506241 82.70947266 387.17626953 C80.38477937 385.73247021 78.04032073 384.32713481 75.6875 382.9296875 C71.4589678 380.41580922 67.24477673 377.87906143 63.03466797 375.33447266 C58.78390962 372.76662489 54.52718185 370.20874308 50.26953125 367.65234375 C49.43131836 367.14880371 48.59310547 366.64526367 47.72949219 366.12646484 C42.65643389 363.08322367 37.5645192 360.07483764 32.45703125 357.08984375 C20.99024222 350.38354815 9.66889948 343.43141022 -1.67480469 336.51977539 C-3.0945459 335.65727173 -3.0945459 335.65727173 -4.54296875 334.77734375 C-5.42436523 334.20685303 -6.30576172 333.6363623 -7.21386719 333.04858398 C-10.72407783 331.13268599 -12.72372334 331.75031977 -16.54296875 332.77734375 C-19.51884583 334.23337718 -22.26608881 335.97532592 -25.04296875 337.77734375 C-26.65198889 338.79092813 -28.26136878 339.80394163 -29.87109375 340.81640625 C-30.66451172 341.32075195 -31.45792969 341.82509766 -32.27539062 342.34472656 C-35.41859758 344.33055111 -38.59998953 346.24793907 -41.79296875 348.15234375 C-42.38505127 348.50707764 -42.97713379 348.86181152 -43.5871582 349.22729492 C-50.07003006 353.10616094 -56.58131649 356.93714009 -63.08813477 360.77563477 C-69.15093236 364.35516344 -75.19749253 367.9603085 -81.23046875 371.58984375 C-89.52498596 376.57863058 -97.84232928 381.52824191 -106.16796875 386.46484375 C-106.77176361 386.82317291 -107.37555847 387.18150208 -107.99765015 387.5506897 C-109.71282852 388.56840381 -111.42866578 389.58500726 -113.14453125 390.6015625 C-114.63460693 391.4846106 -114.63460693 391.4846106 -116.15478516 392.38549805 C-121.53012702 395.51827498 -126.38831711 395.42081901 -132.54296875 394.77734375 C-140.06365623 392.44490663 -143.85638569 387.47902509 -147.54296875 380.77734375 C-151.61870428 372.62587269 -147.24846079 360.36787521 -145.34472656 351.96337891 C-144.79771514 349.54829929 -144.2664939 347.1301908 -143.73828125 344.7109375 C-142.11508778 337.34510617 -140.38730963 330.02603339 -138.3984375 322.75 C-136.8372306 317.01688002 -135.60670432 311.31795116 -134.60546875 305.46484375 C-133.42433255 298.90429297 -131.99999862 292.54176754 -130.10546875 286.15234375 C-129.22758526 283.03360363 -128.38528027 279.90584731 -127.54296875 276.77734375 C-127.24487305 275.7104834 -126.94677734 274.64362305 -126.63964844 273.54443359 C-122.51928056 260.66612696 -122.51928056 260.66612696 -123.32861328 247.64306641 C-125.78618099 244.07954268 -129.10779107 241.91956908 -132.82080078 239.79541016 C-135.43654055 238.24910524 -137.66772787 236.30206521 -139.98046875 234.33984375 C-140.87636719 233.61925781 -141.77226562 232.89867187 -142.6953125 232.15625 C-146.49814588 228.97939743 -150.09360005 225.60330576 -153.70898438 222.21679688 C-157.03434152 219.1196891 -160.43007682 216.18119999 -163.98046875 213.33984375 C-169.00138823 209.31287631 -173.66718692 204.98519672 -178.34912109 200.57666016 C-182.66177726 196.53789839 -187.14135646 192.78787173 -191.75390625 189.09375 C-195.60160496 185.89811227 -199.25247632 182.5090278 -202.8984375 179.08666992 C-205.88716849 176.2838344 -208.9262026 173.61566823 -212.10546875 171.02734375 C-216.50551433 167.16683864 -219.07025756 163.1841244 -219.8828125 157.328125 C-220.13468858 150.74912169 -219.15689966 144.97846203 -214.92578125 139.796875 C-205.98244617 130.4888975 -194.73993109 130.61171912 -182.4375 130.12109375 C-178.28328378 129.89172265 -174.17781397 129.37452161 -170.0546875 128.8359375 C-161.56865251 127.7323367 -153.07255985 127.00965142 -144.54296875 126.33984375 C-141.38389803 126.08727603 -138.22508828 125.83159983 -135.06640625 125.57421875 C-134.27414642 125.50975052 -133.4818866 125.44528229 -132.6656189 125.37886047 C-127.29971697 124.93665717 -121.94023935 124.44491074 -116.58203125 123.91796875 C-115.50946075 123.81324501 -115.50946075 123.81324501 -114.41522217 123.70640564 C-111.05054621 123.37689416 -107.68701884 123.04001973 -104.32421875 122.69165039 C-96.01661855 121.87092211 -87.88831361 121.62623528 -79.54296875 121.77734375 C-79.42848389 121.07383789 -79.31399902 120.37033203 -79.19604492 119.64550781 C-78.48156305 116.5076637 -77.392758 113.83104391 -76.09375 110.88671875 C-75.58255615 109.71931152 -75.0713623 108.5519043 -74.54467773 107.34912109 C-74.27017792 106.72817566 -73.9956781 106.10723022 -73.71286011 105.46746826 C-72.22645835 102.10400483 -70.75696833 98.73314797 -69.28515625 95.36328125 C-68.9773674 94.6597049 -68.66957855 93.95612854 -68.35246277 93.23123169 C-65.0024942 85.56335535 -61.73893894 77.85943579 -58.48046875 70.15234375 C-57.31030751 67.38784644 -56.13958343 64.62358768 -54.96875 61.859375 C-54.68253281 61.18353867 -54.39631561 60.50770233 -54.10142517 59.81138611 C-49.7179241 49.46457661 -45.30033043 39.13267826 -40.84765625 28.81542969 C-39.6288508 25.97732808 -38.42757218 23.13246258 -37.23046875 20.28515625 C-36.54348428 18.67816493 -35.85602408 17.07137686 -35.16796875 15.46484375 C-34.88260254 14.77205322 -34.59723633 14.0792627 -34.30322266 13.36547852 C-31.437977 6.75788806 -27.1826524 0.92245706 -20.54296875 -2.22265625 C-12.92016334 -4.42759996 -7.06444187 -3.47950122 0 0 Z " fill="#FEFEFE" transform="translate(2371.54296875,132.22265625)"/>
<path d="M0 0 C14.57883213 7.4283824 18.99950545 27.41575487 24.58349609 41.59204102 C26.53877517 46.52571032 28.6678021 51.26050368 31.12890625 55.96484375 C33.03248298 59.83763778 34.60386687 63.8424367 36.22021484 67.84082031 C39.9052787 76.90066564 43.8419298 85.85279287 47.75585938 94.81542969 C50.40435256 100.8894448 53.01777895 106.96800803 55.42895508 113.14086914 C56.68974062 116.28486158 58.03313322 119.38974872 59.375 122.5 C60.09781662 122.55819916 60.82063324 122.61639832 61.56535339 122.67636108 C68.43413068 123.23026159 75.30252303 123.78873586 82.17052746 124.3521328 C85.69999851 124.64150622 89.22958762 124.92921406 92.75952148 125.21289062 C96.83360557 125.54037487 100.90703113 125.87550714 104.98046875 126.2109375 C106.2257988 126.30998383 107.47112885 126.40903015 108.75419617 126.51107788 C115.76885174 127.09522787 122.6797001 127.92670898 129.62417603 129.08111572 C133.29796523 129.64054539 136.84603389 129.77961193 140.5625 129.875 C149.32390639 130.24768599 158.04505261 131.02383026 166.76333618 131.9487915 C168.28291164 132.10655998 169.80343843 132.25544593 171.32479858 132.3949585 C181.57944533 133.34668351 188.55094259 134.83893263 195.46875 142.95703125 C198.80216742 148.54050543 200.81639822 152.98577393 199.375 159.5 C195.58147884 171.25802828 185.60291572 178.65373724 176.29296875 186.0859375 C173.03812533 188.77869953 169.95531903 191.6116054 166.875 194.5 C162.13662427 198.93861939 157.25377922 203.09144458 152.1875 207.15625 C148.39335871 210.31803441 144.81216235 213.68545364 141.20874023 217.06079102 C137.883452 220.15780084 134.48780061 223.09621684 130.9375 225.9375 C126.50852389 229.49233609 122.33069849 233.24642486 118.1875 237.125 C117.59171143 237.68268066 116.99592285 238.24036133 116.38208008 238.81494141 C115.2352773 239.88908087 114.08854587 240.96329653 112.94189453 242.03759766 C110.85564502 243.98472052 108.7517124 245.90965206 106.625 247.8125 C105.73554687 248.61107422 105.73554687 248.61107422 104.828125 249.42578125 C103.375 250.5 103.375 250.5 101.375 250.5 C101.96995698 253.79339825 102.57770412 257.0843197 103.1875 260.375 C103.35314453 261.2928125 103.51878906 262.210625 103.68945312 263.15625 C104.70854286 268.61703275 106.02807693 273.84711231 107.68579102 279.14697266 C108.70850429 282.63861648 109.33886325 286.16526395 109.9375 289.75 C110.54918099 293.37115144 111.17192043 296.89485562 112.34375 300.38671875 C113.72194477 304.54740525 114.49559896 308.76146681 115.3125 313.0625 C116.5893712 319.73060517 118.00711825 326.34831567 119.55200195 332.9597168 C120.44106595 336.78419528 121.30557818 340.61388788 122.1640625 344.4453125 C122.46873671 345.80208632 122.77342425 347.15885714 123.078125 348.515625 C123.5440145 350.5913114 124.0094145 352.66710321 124.47363281 354.74316406 C124.93154669 356.7900296 125.39139129 358.83645345 125.8515625 360.8828125 C126.2549585 362.68322998 126.2549585 362.68322998 126.66650391 364.52001953 C127.33547144 367.52844345 127.33547144 367.52844345 128.375 370.5 C129.02201523 376.84074928 127.470401 382.01516665 124.375 387.5 C122.26797786 389.88662697 120.01792035 391.73622155 117.375 393.5 C116.199375 394.304375 116.199375 394.304375 115 395.125 C110.25310037 397.61147123 105.58380726 397.24951398 100.375 396.5 C91.93691263 393.58834604 84.40089504 388.09805138 76.8984375 383.33203125 C71.8696513 380.15683997 66.75184462 377.13845129 61.625 374.125 C54.73200147 370.07088433 47.85090318 365.99988935 41 361.875 C34.7535968 358.11418528 28.49227073 354.37941586 22.21875 350.6640625 C21.50246429 350.23966888 20.78617859 349.81527527 20.04818726 349.37802124 C16.45473089 347.24912925 12.86023627 345.12202228 9.26416016 342.99755859 C7.92867118 342.20677286 6.59322031 341.41592279 5.2578125 340.625 C4.65231567 340.26814117 4.04681885 339.91128235 3.42297363 339.54360962 C0.56703617 337.85003611 -2.10006379 336.13691287 -4.74267578 334.1171875 C-7.45980653 332.17417615 -7.45980653 332.17417615 -10.13452148 333.04272461 C-10.95637939 333.52362549 -11.7782373 334.00452637 -12.625 334.5 C-13.54418213 335.00088135 -14.46336426 335.5017627 -15.41040039 336.01782227 C-16.42094482 336.61135498 -17.43148926 337.2048877 -18.47265625 337.81640625 C-19.03270859 338.14442734 -19.59276093 338.47244843 -20.16978455 338.81040955 C-22.01124393 339.8907103 -23.84945866 340.97639543 -25.6875 342.0625 C-26.98888979 342.82819724 -28.29032281 343.59382101 -29.59179688 344.359375 C-38.89261071 349.84057031 -48.12979615 355.42295512 -57.34332275 361.04931641 C-67.68793541 367.36473558 -78.11776251 373.52573723 -88.59570312 379.6171875 C-95.39691702 383.57210138 -95.39691702 383.57210138 -102.11376953 387.66748047 C-102.68756851 388.02571396 -103.26136749 388.38394745 -103.85255432 388.7530365 C-105.42965633 389.74240982 -107.00222892 390.73899288 -108.57446289 391.73608398 C-115.51647215 395.75017097 -121.54677655 397.7222096 -129.625 396.5 C-136.2547309 393.9369597 -141.76370255 388.47844334 -144.76171875 382.0703125 C-148.14039091 372.01073656 -143.97341111 361.52164207 -141.24023438 351.77148438 C-140.12179554 347.64213719 -139.27256111 343.46165653 -138.41333008 339.27246094 C-137.57649993 335.26790861 -136.69952405 331.27402899 -135.80859375 327.28125 C-135.63512421 326.50228867 -135.46165466 325.72332733 -135.28292847 324.92076111 C-133.47380692 316.80562959 -131.64685152 308.69451793 -129.81832886 300.58374023 C-126.05661513 283.89589501 -122.32071576 267.2026005 -118.625 250.5 C-119.23077881 250.21713135 -119.83655762 249.9342627 -120.46069336 249.64282227 C-123.47254502 248.05246946 -125.74260916 245.76810281 -128.1875 243.4375 C-132.04069892 239.82951001 -135.93856011 236.36407064 -140.0625 233.0625 C-145.48408343 228.69859541 -150.55342117 224.0157847 -155.640625 219.2734375 C-160.25853761 214.96894486 -165.03261607 210.85687595 -169.8359375 206.76171875 C-171.03662041 205.73716908 -172.23713621 204.71242354 -173.4375 203.6875 C-174.04368164 203.17018311 -174.64986328 202.65286621 -175.27441406 202.11987305 C-179.0157082 198.91497771 -182.68615383 195.64790722 -186.3125 192.3125 C-189.89282102 189.02702894 -193.5422963 185.87837993 -197.3125 182.8125 C-198.66794922 181.70841797 -198.66794922 181.70841797 -200.05078125 180.58203125 C-201.6644491 179.27689474 -203.28575044 177.98108014 -204.91796875 176.69921875 C-211.30324841 171.487968 -216.08032719 164.83779349 -216.9375 156.4375 C-216.37244012 149.31774557 -214.1520544 143.49598026 -208.9375 138.5 C-204.75875625 135.17883426 -200.82718613 134.19113424 -195.625 133.5 C-194.53445313 133.25830078 -194.53445313 133.25830078 -193.421875 133.01171875 C-189.49250033 132.29279685 -185.53971051 132.00905863 -181.5625 131.6875 C-173.69633777 131.02810004 -165.83332075 130.34280995 -157.97265625 129.62109375 C-156.67288094 129.50177742 -156.67288094 129.50177742 -155.34684753 129.38005066 C-153.53458393 129.21361126 -151.72232304 129.04714235 -149.9100647 128.88064575 C-125.49136385 126.63921231 -101.0602454 124.55221748 -76.625 122.5 C-76.17769531 121.40042969 -75.73039063 120.30085938 -75.26953125 119.16796875 C-72.26988817 111.8218945 -69.22778652 104.51998731 -65.8984375 97.31591797 C-63.17339368 91.29010212 -60.67013719 85.16596593 -58.125 79.0625 C-57.56395556 77.72063894 -57.00275826 76.37884179 -56.44140625 75.03710938 C-54.3859604 70.12189479 -52.33093533 65.20655009 -50.29443359 60.28344727 C-47.38099745 53.24656378 -44.34222723 46.2724741 -41.25 39.3125 C-37.27289873 30.36245761 -37.27289873 30.36245761 -33.53125 21.3125 C-33.22493652 20.54317139 -32.91862305 19.77384277 -32.60302734 18.98120117 C-32.05665226 17.59211994 -31.51961521 16.19930714 -30.99462891 14.80200195 C-28.00077422 7.17848529 -23.65596989 2.81362177 -16.23828125 -0.58203125 C-10.48497762 -2.6029974 -5.65605994 -2.13418167 0 0 Z " fill="#FEFEFE" transform="translate(1010.625,131.5)"/>
<path d="M0 0 C10.15648019 6.72933749 14.18825686 21.81917722 18.78881836 32.63134766 C19.78367844 34.96918352 20.78304778 37.30505029 21.78320312 39.640625 C26.99706967 51.83783997 26.99706967 51.83783997 29.28515625 57.63671875 C31.90737492 64.27807194 34.80515412 70.80402719 37.66015625 77.34765625 C38.78501122 79.92788312 39.90878014 82.50857838 41.03125 85.08984375 C41.30349396 85.71565338 41.57573792 86.34146301 41.85623169 86.98623657 C43.98952817 91.90372157 46.05669752 96.84653758 48.09106445 101.80566406 C49.6837161 105.55930517 51.43335129 109.23149978 53.20703125 112.90234375 C54.33217072 115.7498121 54.8166606 118.44534088 55.22265625 121.47265625 C56.09664062 121.44945312 56.970625 121.42625 57.87109375 121.40234375 C65.66525237 121.28796406 73.19349824 121.68476368 80.92919922 122.62280273 C87.01874648 123.35665828 93.10898458 123.91819273 99.22265625 124.41015625 C101.27865441 124.57802002 103.33464362 124.74599342 105.390625 124.9140625 C107.029104 125.04772217 107.029104 125.04772217 108.70068359 125.18408203 C120.44550523 126.14639862 132.18381709 127.16107067 143.91674805 128.25909424 C146.28326975 128.47826998 148.65034919 128.69046583 151.01757812 128.90185547 C155.00911987 129.26115729 158.99702509 129.64925115 162.98397827 130.05621338 C164.49828831 130.20687121 166.01347579 130.34899476 167.52944946 130.48187256 C176.99967182 131.32032464 185.03727379 132.57980225 191.60766602 140.04663086 C195.97465489 146.12140211 196.03046857 153.25805654 195.22265625 160.47265625 C191.75483783 169.6942541 182.63414386 176.01232306 175.24609375 181.953125 C171.96331658 184.68877265 168.8390491 187.55121078 165.72265625 190.47265625 C160.98421094 194.91120877 156.10144308 199.06409472 151.03515625 203.12890625 C147.24101496 206.29069066 143.6598186 209.65810989 140.05639648 213.03344727 C136.73110825 216.13045709 133.33545686 219.06887309 129.78515625 221.91015625 C124.77275368 225.93029281 120.10764556 230.24438241 115.44287109 234.65576172 C110.90645828 238.91830635 106.19164928 242.79988929 101.234375 246.5703125 C99.01732465 248.66682419 98.33927146 249.44621377 98.22265625 252.47265625 C98.6717334 253.81082397 98.6717334 253.81082397 99.12988281 255.17602539 C100.25096336 258.5580519 100.96240004 261.84824788 101.625 265.34765625 C103.05754986 272.75222723 104.66080678 280.10983885 106.32983398 287.46435547 C106.79113662 289.499034 107.24825063 291.53462506 107.70507812 293.5703125 C108.00365944 294.89198287 108.30247868 296.21359951 108.6015625 297.53515625 C108.86525635 298.70175781 109.1289502 299.86835938 109.40063477 301.0703125 C110.2459732 304.56916503 111.22674515 308.01410962 112.22265625 311.47265625 C112.56304169 313.21744678 112.87751464 314.96758646 113.16015625 316.72265625 C113.8106986 320.46327477 114.61721786 324.07237189 115.66015625 327.72265625 C117.21540993 333.220478 118.32059698 338.76150089 119.39453125 344.37109375 C119.96166218 347.27023323 120.60696609 350.14029777 121.30078125 353.01171875 C126.78918532 375.82132464 126.78918532 375.82132464 121.484375 384.79296875 C117.76006716 389.75102562 113.07425497 392.65002714 107.22265625 394.47265625 C98.63796964 395.56296778 93.16174286 393.57430814 85.97265625 389.03515625 C85.05427979 388.48239014 84.13590332 387.92962402 83.18969727 387.36010742 C81.35155537 386.2509199 79.51939217 385.13175392 77.69384766 384.00195312 C75.64651708 382.73496254 73.58968485 381.49196338 71.515625 380.26953125 C65.67377283 376.81474557 59.88778295 373.26860371 54.09375 369.734375 C51.7620839 368.31320206 49.42994923 366.89280014 47.09765625 365.47265625 C46.50401276 365.11096344 45.91036926 364.74927063 45.29873657 364.37661743 C34.72171714 357.93690686 24.06274238 351.64485831 13.34326172 345.4453125 C12.22322754 344.79433594 11.10319336 344.14335937 9.94921875 343.47265625 C8.85125977 342.83585937 7.75330078 342.1990625 6.62207031 341.54296875 C4.17176281 340.0506815 1.82397522 338.53445608 -0.52832031 336.90234375 C-1.15122955 336.47695313 -1.77413879 336.0515625 -2.41592407 335.61328125 C-3.61162223 334.7899297 -4.79578475 333.94948071 -5.96566772 333.08984375 C-7.78941695 331.77619875 -7.78941695 331.77619875 -10.77734375 330.47265625 C-15.61309675 331.44238004 -19.3856857 333.92765209 -23.46484375 336.59765625 C-30.72505286 341.24055131 -38.10197114 345.66189797 -45.52734375 350.03515625 C-54.51965746 355.33456936 -63.4682258 360.69844636 -72.37634277 366.13821411 C-82.93039138 372.58261093 -93.54784783 378.88687537 -104.3359375 384.93359375 C-107.05537788 386.46446151 -109.70812098 388.0426317 -112.3125 389.76171875 C-119.13795262 394.18285064 -124.62210404 396.18084835 -132.77734375 394.47265625 C-139.67209069 391.95042538 -144.36658267 387.78504239 -147.77734375 381.29296875 C-150.91858237 372.43369419 -148.5923846 363.83580835 -146.046875 355.12890625 C-144.34159602 349.12589081 -143.12196036 343.01455606 -141.83984375 336.91015625 C-138.66769526 321.8993818 -135.44855392 306.90242935 -131.65234375 292.03515625 C-130.02457599 285.64879321 -128.69283688 279.25360166 -127.48828125 272.77734375 C-126.79654156 269.56189444 -125.84936423 266.57907922 -124.77734375 263.47265625 C-123.22565338 258.6739101 -122.23039367 254.52647495 -122.77734375 249.47265625 C-125.74512741 245.39962901 -129.21015853 242.57237311 -133.25 239.60546875 C-135.15654344 238.1914084 -136.89950574 236.63423654 -138.65234375 235.03515625 C-141.08695957 232.91941943 -143.53765648 230.82301842 -145.9921875 228.73046875 C-147.19155784 227.7072089 -148.39077192 226.68376588 -149.58984375 225.66015625 C-150.19594482 225.14291992 -150.8020459 224.62568359 -151.42651367 224.09277344 C-155.16785916 220.88776245 -158.83841305 217.62064122 -162.46484375 214.28515625 C-165.93870684 211.09528781 -169.476444 208.05216731 -173.15234375 205.09765625 C-177.94875085 201.23046762 -182.44775835 197.12284909 -186.94091797 192.91455078 C-190.2881616 189.79726289 -193.70730281 186.83699143 -197.27734375 183.97265625 C-218.35125397 166.85977467 -218.35125397 166.85977467 -220.1328125 155.1328125 C-220.48902427 149.50081557 -219.09758143 145.02295414 -215.77734375 140.47265625 C-210.55754566 134.93683698 -205.62720676 131.45159442 -197.875 130.9453125 C-196.44281128 130.84319458 -196.44281128 130.84319458 -194.98168945 130.73901367 C-193.94488037 130.67174072 -192.90807129 130.60446777 -191.83984375 130.53515625 C-182.73976945 129.87475725 -173.66546179 129.09810502 -164.58984375 128.16015625 C-150.8731042 126.76444082 -137.1508567 125.42799251 -123.42440796 124.1312561 C-121.01567141 123.90267132 -118.60715633 123.67173911 -116.19888306 123.43832397 C-91.36128406 121.03430942 -91.36128406 121.03430942 -79.77734375 121.47265625 C-79.60242905 120.92325882 -79.42751434 120.37386139 -79.24729919 119.80781555 C-77.47668084 114.35797235 -75.45177777 109.08986365 -73.1875 103.828125 C-72.84676956 103.02853363 -72.50603912 102.22894226 -72.15498352 101.40512085 C-71.05327299 98.82202667 -69.94660286 96.24109078 -68.83984375 93.66015625 C-68.07276787 91.86398393 -67.30600631 90.06767735 -66.53955078 88.27124023 C-63.11443506 80.24818173 -59.67495711 72.23127929 -56.234375 64.21484375 C-55.96914032 63.59681381 -55.70390564 62.97878387 -55.43063354 62.34202576 C-54.18459098 59.43892253 -52.93772382 56.53617923 -51.68945312 53.6340332 C-48.72130361 46.72101317 -45.83971229 39.77803107 -43.01196289 32.80664062 C-41.17848605 28.32977245 -39.13045115 24.02177038 -36.88671875 19.73828125 C-35.6933711 17.3011628 -34.77055856 14.83317877 -33.83984375 12.28515625 C-31.23978616 5.71278846 -27.86098696 1.23322786 -21.46484375 -1.96484375 C-13.47670211 -5.03720592 -7.43365799 -4.12470358 0 0 Z " fill="#FEFEFE" transform="translate(3052.77734375,134.52734375)"/>
<path d="M0 0 C6.47913913 5.67554233 9.22542177 13.67737469 12.4375 21.4375 C13.0103609 22.79513567 13.58450513 24.15223053 14.15991211 25.50878906 C15.28107965 28.15510542 16.39645926 30.80372862 17.50683594 33.45458984 C19.31207322 37.7409953 21.17693367 41.99851598 23.0625 46.25 C25.94093191 52.82017997 28.66356614 59.42581641 31.17578125 66.14453125 C33.42113797 72.11592885 35.82936993 77.83019399 38.7578125 83.49609375 C40.56261839 87.13408299 42.0701046 90.87873222 43.60546875 94.63671875 C45.53150677 99.28186928 47.55905159 103.88062042 49.58935547 108.48095703 C51.12343098 111.96464129 52.59680438 115.46185305 54 119 C70.24376834 120.64732999 86.49019043 122.24948806 102.74789429 123.75305176 C110.44333914 124.46523369 118.13128196 125.21092372 125.8125 126.0625 C135.71676994 127.15246513 145.6520169 127.83086582 155.58984375 128.53515625 C157.18179565 128.65093018 157.18179565 128.65093018 158.8059082 128.76904297 C160.96806128 128.92538301 163.13068962 129.07526197 165.29370117 129.21923828 C166.34404541 129.29513184 167.39438965 129.37102539 168.4765625 129.44921875 C169.40936035 129.51326904 170.3421582 129.57731934 171.30322266 129.64331055 C178.50114313 130.59534403 184.35272275 133.36693667 189 139 C189.8353125 139.99 189.8353125 139.99 190.6875 141 C193.81677694 145.76842201 194.8319856 150.32829331 194 156 C191.52242129 163.64984353 187.46547253 169.06638004 181.125 174 C176.55772428 177.65382057 172.25370871 181.48696853 168 185.5 C163.08742139 190.12669299 158.04873381 194.47274607 152.77734375 198.69140625 C149.57557201 201.35279458 146.53765082 204.15462246 143.5 207 C138.76135857 211.43834906 133.87880421 215.59142453 128.8125 219.65625 C125.02514285 222.81238095 121.4494775 226.17279845 117.85351562 229.54321289 C113.53725539 233.56488965 109.06566696 237.30322995 104.4375 240.96484375 C103.633125 241.63644531 102.82875 242.30804688 102 243 C101.05125 243.72316406 100.1025 244.44632813 99.125 245.19140625 C96.84210587 248.20868728 96.69476145 248.54158091 97.04296875 252.05859375 C97.33356189 253.71097941 97.65519781 255.35806999 98 257 C98.16709473 257.92699707 98.33418945 258.85399414 98.50634766 259.80908203 C99.07211311 262.90176406 99.68559551 265.98165169 100.3125 269.0625 C100.53542725 270.16650146 100.75835449 271.27050293 100.98803711 272.40795898 C102.74857403 281.01202538 104.7669413 289.50720246 107 298 C109.18944695 306.3992937 111.19453633 314.71436739 112.51171875 323.3046875 C112.96428011 325.80282623 113.58965865 328.08938003 114.375 330.5 C116.29621297 336.47819063 117.38642773 342.62116844 118.55419922 348.78125 C119.26393533 352.48772978 120.01731773 356.05805445 121.09765625 359.6796875 C122.9636108 366.54575403 123.40743977 374.88455477 120.4375 381.5 C117.03091924 387.1293143 112.19242405 390.89866691 106 393 C94.22425367 395.59622754 85.53257216 388.88488703 76 383 C73.91519871 381.73770486 71.82919269 380.477398 69.7421875 379.21875 C65.65268181 376.74716832 61.56903237 374.26658448 57.49188232 371.77468872 C48.87016442 366.50725669 40.19350214 361.3354099 31.5 356.1875 C30.82248688 355.78626923 30.14497375 355.38503845 29.44692993 354.97164917 C28.77584198 354.57422516 28.10475403 354.17680115 27.41333008 353.76733398 C26.08673315 352.98163873 24.76015408 352.1959133 23.43359375 351.41015625 C22.47224266 350.84079597 22.47224266 350.84079597 21.49147034 350.25993347 C15.06617465 346.45175085 8.66259155 342.60753197 2.2734375 338.73901367 C0.88006904 337.8984559 -0.51673876 337.06356391 -1.91748047 336.23535156 C-3.40551381 335.35264949 -4.88261487 334.45141189 -6.35205078 333.53808594 C-7.13435059 333.06918945 -7.91665039 332.60029297 -8.72265625 332.1171875 C-9.42269775 331.68776855 -10.12273926 331.25834961 -10.84399414 330.81591797 C-13.66731991 329.74745973 -15.1405765 330.10606419 -18 331 C-20.20291824 332.04978744 -20.20291824 332.04978744 -22.3359375 333.40625 C-23.14554932 333.89843018 -23.95516113 334.39061035 -24.78930664 334.89770508 C-25.64258545 335.4264624 -26.49586426 335.95521973 -27.375 336.5 C-29.17311085 337.59776474 -30.97128852 338.69542004 -32.76953125 339.79296875 C-33.65592285 340.33743652 -34.54231445 340.8819043 -35.45556641 341.44287109 C-38.97363484 343.59583986 -42.51803636 345.7034092 -46.0625 347.8125 C-50.33881417 350.36680465 -54.56571493 352.98453447 -58.75 355.6875 C-62.08532761 357.82990022 -65.44007607 359.82220724 -68.9375 361.6875 C-75.03964971 364.95465665 -80.94253128 368.52905366 -86.8671875 372.10400391 C-94.46893382 376.68965557 -102.10605474 381.21340096 -109.75317383 385.72290039 C-110.6273999 386.23844482 -111.50162598 386.75398926 -112.40234375 387.28515625 C-113.17054443 387.73769775 -113.93874512 388.19023926 -114.73022461 388.65649414 C-116.36800928 389.62591751 -117.98827539 390.62515201 -119.59667969 391.64257812 C-124.76718425 394.56293625 -131.79882762 393.8236026 -137.4140625 392.37890625 C-144.00668879 389.51531375 -148.2071618 383.46214452 -151 377 C-152.08914656 368.59093989 -150.03934077 360.60146845 -148 352.5 C-147.68357646 351.20145076 -147.36867431 349.90252999 -147.05517578 348.60327148 C-146.5591907 346.54865584 -146.06224793 344.49432006 -145.56082153 342.44102478 C-143.76370192 335.07943417 -142.06917003 327.69514795 -140.3862915 320.30673218 C-139.87725787 318.07241056 -139.36624164 315.83854916 -138.85498047 313.60473633 C-136.6746515 304.06107153 -134.55269573 294.50610254 -132.54638672 284.92407227 C-131.82148281 281.50887449 -131.07507201 278.22408286 -129.96484375 274.91015625 C-128.74709201 271.23718034 -128.09632871 267.55656586 -127.4375 263.75 C-126.12809917 256.25619835 -126.12809917 256.25619835 -125 254 C-124.49908909 251.12429259 -124.49908909 251.12429259 -125 248 C-127.10565123 245.34762787 -127.10565123 245.34762787 -130 243.0625 C-130.50619873 242.62921387 -131.01239746 242.19592773 -131.53393555 241.74951172 C-133.01181272 240.48690941 -134.50560173 239.24300417 -136 238 C-137.27409627 236.87869671 -138.54533465 235.75412991 -139.8125 234.625 C-142.26843638 232.48612098 -144.7403719 230.36668065 -147.21875 228.25390625 C-153.76251142 222.67243614 -160.22308967 217.03199262 -166.56640625 211.22265625 C-171.037065 207.13950243 -175.61141889 203.18157621 -180.21875 199.25390625 C-181.41680775 198.2319362 -182.6147201 197.20979569 -183.8125 196.1875 C-184.72153076 195.41176636 -184.72153076 195.41176636 -185.64892578 194.62036133 C-190.30183848 190.63437026 -194.82777849 186.5241021 -199.3359375 182.375 C-202.08977927 179.91996217 -204.92891207 177.61315236 -207.8125 175.3125 C-215.76385034 168.84706534 -221.08613322 163.04982943 -222.4375 152.625 C-221.65049536 146.10410442 -219.70640111 140.13772847 -214.8125 135.5625 C-207.81010398 130.45996614 -199.83963719 129.4978235 -191.40234375 128.90234375 C-189.91354454 128.78264977 -189.91354454 128.78264977 -188.39466858 128.66053772 C-185.24300551 128.40889988 -182.09045035 128.17240484 -178.9375 127.9375 C-174.80036126 127.61851726 -170.66375846 127.29307227 -166.52734375 126.96484375 C-165.02937508 126.8474308 -165.02937508 126.8474308 -163.50114441 126.72764587 C-156.37620856 126.15396026 -149.31108559 125.34299779 -142.22631836 124.40405273 C-138.40494143 123.92547696 -134.66061814 123.69631233 -130.8125 123.5625 C-121.28636784 123.15512179 -111.83492199 122.09564833 -102.36450195 121.01586914 C-95.20536355 120.22626906 -88.20245663 119.80961454 -81 120 C-80.82210937 118.69095703 -80.82210937 118.69095703 -80.640625 117.35546875 C-80.01223698 114.06409491 -79.07337254 111.38222176 -77.75 108.3125 C-77.35296875 107.38050781 -76.9559375 106.44851562 -76.546875 105.48828125 C-75.29759888 102.67110051 -74.02127451 99.87030805 -72.734375 97.0703125 C-69.49829505 89.96744229 -66.50367218 82.76557374 -63.5 75.5625 C-62.93895556 74.22063894 -62.37775826 72.87884179 -61.81640625 71.53710938 C-59.7609604 66.62189479 -57.70593533 61.70655009 -55.66943359 56.78344727 C-52.29859667 48.64179409 -48.74901978 40.58620956 -45.16699219 32.53564453 C-42.67830336 26.91314398 -40.29650534 21.27856378 -38.08886719 15.5402832 C-34.66384548 6.69962037 -30.78621767 0.27437616 -22 -4 C-14.11935948 -6.98920847 -6.60294025 -4.70899344 0 0 Z " fill="#FEFEFE" transform="translate(341,134)"/>
</svg>
